<svg viewBox="0 0 10 11" xmlns="http://www.w3.org/2000/svg">
<path d="M8.9999 4.82478C9.01397 3.11168 7.60767 1.54123 5.86505 1.32406C5.83039 1.3198 5.79263 1.31331 5.75266 1.30644C5.66639 1.29161 5.57717 1.27637 5.48716 1.27637C5.13 1.27637 5.03453 1.53666 5.00939 1.6919C4.98495 1.84285 5.00827 1.9696 5.07857 2.0688C5.19685 2.23567 5.40496 2.26529 5.57212 2.28902C5.62111 2.29604 5.66734 2.30257 5.70604 2.31159C7.27171 2.67456 7.7989 3.24523 8.05655 4.85583C8.06284 4.89519 8.06568 4.94368 8.0687 4.99511C8.07994 5.18764 8.10336 5.5882 8.51842 5.5882H8.51846C8.55301 5.5882 8.59014 5.5851 8.62881 5.57899C9.01532 5.51805 9.0032 5.1519 8.99739 4.97598C8.99575 4.92644 8.99418 4.87957 8.99822 4.8484C8.99931 4.84055 8.99986 4.83267 8.9999 4.82478Z"/>
<path d="M5.49693 1.04625C5.53745 1.04929 5.57581 1.05219 5.60774 1.05728C7.8541 1.41615 8.88717 2.52178 9.17345 4.8736C9.17832 4.91358 9.17908 4.96234 9.17987 5.01397C9.18273 5.19771 9.18861 5.57996 9.58377 5.58788L9.59604 5.58801C9.71997 5.58801 9.81855 5.54919 9.88906 5.47254C10.0121 5.33887 10.0035 5.14031 9.99657 4.98073C9.99488 4.94158 9.99326 4.9047 9.99368 4.87242C10.0222 2.46711 8.01801 0.285988 5.70467 0.204878C5.69507 0.204547 5.68592 0.205076 5.67667 0.206429C5.67212 0.207122 5.6637 0.207981 5.64928 0.207981C5.62621 0.207981 5.59783 0.205901 5.56773 0.203788C5.53135 0.201213 5.4901 0.198242 5.44828 0.198242C5.07988 0.198242 5.00984 0.470259 5.00088 0.632413C4.98022 1.00716 5.32921 1.03354 5.49693 1.04625Z"/>
<path d="M9.34273 7.86713C9.29331 7.82668 9.24222 7.78483 9.19438 7.74354C8.9406 7.52472 8.67062 7.32303 8.40952 7.12795C8.35533 7.08751 8.30114 7.04703 8.24715 7.00644C7.91269 6.75472 7.612 6.6324 7.32791 6.6324C6.94528 6.6324 6.61167 6.85894 6.33633 7.30562C6.21434 7.50365 6.06635 7.59994 5.88396 7.59994C5.77611 7.59994 5.65356 7.56696 5.51977 7.50189C4.4402 6.97734 3.66932 6.1731 3.22849 5.1115C3.01539 4.59841 3.08447 4.26301 3.45951 3.99005C3.67247 3.83518 4.06888 3.54685 4.0408 2.99472C4.00901 2.36772 2.71785 0.481165 2.17384 0.266893C1.94351 0.17614 1.70151 0.175294 1.45326 0.264779C0.827872 0.490043 0.379085 0.885646 0.1553 1.40875C-0.0609563 1.9142 -0.0511907 2.50769 0.183544 3.12507C0.862134 4.91006 1.8162 6.46633 3.01933 7.75058C4.19698 9.00775 5.64442 10.0375 7.3214 10.8112C7.47255 10.8809 7.6311 10.9189 7.74687 10.9467C7.78633 10.9562 7.82039 10.9643 7.84522 10.9716C7.85886 10.9755 7.87294 10.9777 7.88704 10.9778L7.90029 10.9779C7.90033 10.9779 7.90029 10.9779 7.90036 10.9779C8.6891 10.9779 9.63616 10.2057 9.92702 9.32524C10.1818 8.55433 9.71659 8.17328 9.34273 7.86713Z" />
<path d="M5.51067 3.4329C5.38428 3.43625 5.12123 3.44309 5.02893 3.72369C4.98575 3.85483 4.99092 3.96868 5.04432 4.0621C5.12268 4.19916 5.2728 4.24117 5.40936 4.26421C5.90458 4.34744 6.15892 4.63427 6.20979 5.1668C6.23343 5.41511 6.39306 5.5885 6.59803 5.5885H6.59807C6.61321 5.5885 6.62869 5.58757 6.64411 5.5856C6.89063 5.55488 7.01013 5.36518 6.99933 5.02181C7.00327 4.66345 6.82421 4.25661 6.51968 3.93255C6.2141 3.60749 5.84574 3.42442 5.51067 3.4329Z"/>
</svg>
