<svg width="130" height="59" fill="none" xmlns="http://www.w3.org/2000/svg"><path d="M.538 11.35l1.612-5.4c.102-.408.658-1.055 1.076-1.08h6.992a6.72 6.72 0 011.075 0h4.303c.315.032.396.255.538.54l.537 1.08c.224.336.405.7.538 1.08l.538 2.16c.06.36.175.54.538.54a.682.682 0 00.538-.54v-2.7c0-.998-.55-1.853-1.076-2.7a5.513 5.513 0 00-2.057-2.007 5.483 5.483 0 00-2.783-.694h-1.076c-.252 0-.36-.36-.538-.54A4.572 4.572 0 008.067.008H7.53a8.182 8.182 0 00-4.84 1.62 6.98 6.98 0 00-1.076 1.08v.54C.786 4.292 0 5.155 0 6.49v4.861c0 .118.42 0 .538 0-.034.124.128 0 0 0zm9.143 38.888V38.895a1.121 1.121 0 01.538-1.08 2.894 2.894 0 001.076-3.24 2.016 2.016 0 00-.766-1.226 2 2 0 00-1.385-.395c-1.16-.01-2.34.51-2.69 1.62a2.9 2.9 0 001.076 3.241 1.086 1.086 0 01.538 1.08c-.02 3.65 0 7.154 0 10.803v.54L2.69 39.976c-.608-1.282-1.038-2.49-1.614-3.781a1.6 1.6 0 010-1.08 17.71 17.71 0 003.227-9.182c.02-.09-.04.081 0 0h9.143c.298 1.404.196 2.437.538 3.78a17.343 17.343 0 002.69 5.402 1.067 1.067 0 010 1.08" fill="#fff"/><path d="M14.522 24.313v1.08c-.166.407-.64 1.12-1.076 1.08H4.841a1.322 1.322 0 01-1.075-1.08v-1.08h10.756z" fill="#fff"/><path d="M9.143 26.475l2.15-1.08v2.16l-2.15-1.08zm-.537 0l-2.15 1.08v-2.16l2.15 1.08z" fill="#FFFCF8"/><path d="M8.606 51.316c-.373-.079-1.416 1.093-1.076 2.16.493 1.593 3.877 2.097 4.84 2.161 3.347.227 4.454-1.217 7.53-.54 1.981.427 2.506 1.138 2.689 1.62.215.583-.228 1.475 0 1.62.227.146.906-.518 1.076-1.08a1.604 1.604 0 00-.538-1.62c-.592-.58-1.358-.894-2.69-1.08-2.015-.295-3.252 0-5.378 0a9.434 9.434 0 01-3.226-.54c-1.81-.464-2.562-.88-2.69-1.08-.49-.8-.278-1.566-.537-1.62zm46.197-38.242c-.587-.088-1.203-.3-1.848-.638V11.6h5.544v.836a4.05 4.05 0 01-.793.396c-.278.103-.55.183-.814.242L52.998 27l-2.287.264-3.41-10.648L43.977 27l-2.31.264-4.29-14.19a4.886 4.886 0 01-.858-.242 6.015 6.015 0 01-.748-.396V11.6H42.9v.836c-.25.132-.536.257-.859.374a9.36 9.36 0 01-.968.264l2.047 7.766.462 2.86h.044l.77-2.97 2.925-9.13h1.298l3.125 9.02.748 2.86h.043l.506-2.904 1.76-7.502zm9.244 12.452c.337.073.638.169.902.286.264.117.52.235.77.352V27h-6.776v-.836c.323-.176.63-.308.924-.396.293-.103.587-.183.88-.242V13.074c-.733-.161-1.335-.374-1.804-.638V11.6h2.332c.293 0 .623-.007.99-.022.381-.015.777-.03 1.188-.044.41-.03.829-.051 1.254-.066a17.5 17.5 0 011.232-.044 8.15 8.15 0 012.222.286c.69.176 1.276.447 1.76.814.499.367.88.829 1.144 1.386.279.543.418 1.18.418 1.914 0 1.056-.257 1.921-.77 2.596s-1.217 1.18-2.112 1.518c.587.924 1.21 1.87 1.87 2.838a43.12 43.12 0 002.09 2.772l1.056.704V27h-3.674l-.946-.726a14.305 14.305 0 01-1.804-2.794 43.492 43.492 0 01-1.364-3.146h-1.782v5.192zm1.1-12.672c-.455 0-.821.044-1.1.132v6.138h1.298c.748 0 1.386-.264 1.914-.792.528-.543.792-1.342.792-2.398 0-.543-.073-1.005-.22-1.386a2.498 2.498 0 00-.616-.968 2.462 2.462 0 00-.924-.55 3.598 3.598 0 00-1.144-.176zM81.367 27h-6.864v-.836a5.667 5.667 0 011.782-.638V13.074a4.794 4.794 0 01-.924-.242 5.182 5.182 0 01-.858-.396V11.6h6.864v.836c-.264.161-.558.3-.88.418a5.373 5.373 0 01-.902.22v12.452c.293.059.594.14.902.242.322.103.616.235.88.396V27zm11.771 0H85.57v-.836c.294-.117.624-.235.99-.352a6.533 6.533 0 011.144-.286V13.03h-2.552l-1.408 3.762h-.902a17.072 17.072 0 01-.176-1.122 39.17 39.17 0 01-.154-1.408c-.044-.484-.08-.96-.11-1.43a21.175 21.175 0 01-.044-1.232H96.35c0 .352-.014.763-.044 1.232-.029.47-.066.946-.11 1.43s-.095.953-.154 1.408c-.058.44-.117.814-.176 1.122h-.902l-1.408-3.762h-2.552v12.496c.382.073.756.161 1.122.264.382.103.719.227 1.012.374V27zm15.555-15.4c-.03.66-.081 1.342-.154 2.046a24.183 24.183 0 01-.286 1.98h-.902l-1.012-2.596h-4.114v5.39h2.684l.968-1.694h.704c.073.719.11 1.518.11 2.398 0 .88-.037 1.701-.11 2.464h-.704l-.968-1.738h-2.684v5.72h4.29l1.166-2.794h.902c.058.279.117.594.176.946.058.352.102.719.132 1.1.044.367.073.74.088 1.122a14 14 0 01.044 1.056H97.121v-.836c.249-.132.528-.257.836-.374.308-.117.63-.205.968-.264V13.074a10 10 0 01-.946-.242 5.182 5.182 0 01-.858-.396V11.6h11.572zm6.809 13.926c.337.073.638.169.902.286.264.117.521.235.77.352V27h-6.776v-.836a4.88 4.88 0 01.924-.396c.293-.103.587-.183.88-.242V13.074c-.733-.161-1.335-.374-1.804-.638V11.6h2.332c.293 0 .623-.007.99-.022.381-.015.777-.03 1.188-.044.411-.03.829-.051 1.254-.066a17.5 17.5 0 011.232-.044 8.15 8.15 0 012.222.286c.689.176 1.276.447 1.76.814.499.367.88.829 1.144 1.386.279.543.418 1.18.418 1.914 0 1.056-.257 1.921-.77 2.596s-1.217 1.18-2.112 1.518c.587.924 1.21 1.87 1.87 2.838a43.12 43.12 0 002.09 2.772l1.056.704V27h-3.674l-.946-.726a14.287 14.287 0 01-1.804-2.794 43.625 43.625 0 01-1.364-3.146h-1.782v5.192zm1.1-12.672c-.455 0-.821.044-1.1.132v6.138h1.298c.748 0 1.386-.264 1.914-.792.528-.543.792-1.342.792-2.398 0-.543-.073-1.005-.22-1.386a2.502 2.502 0 00-.616-.968 2.462 2.462 0 00-.924-.55 3.596 3.596 0 00-1.144-.176zm-55.344 25.22c-.586-.088-1.202-.3-1.848-.638V36.6h5.544v.836a4.034 4.034 0 01-.791.396c-.28.103-.55.183-.814.242L59.455 52l-2.288.264-3.41-10.648L50.434 52l-2.31.264-4.29-14.19a4.886 4.886 0 01-.858-.242 6.022 6.022 0 01-.748-.396V36.6h7.127v.836a6.732 6.732 0 01-.858.374 9.34 9.34 0 01-.967.264l2.046 7.766.462 2.86h.044l.77-2.97 2.925-9.13h1.299l3.123 9.02.748 2.86h.044l.507-2.904 1.76-7.502zm4.559 6.226c0-1.144.161-2.2.484-3.168.323-.983.8-1.826 1.43-2.53a6.416 6.416 0 012.332-1.672c.924-.396 1.987-.594 3.19-.594 1.203 0 2.266.198 3.19.594a6.214 6.214 0 012.31 1.672c.63.704 1.107 1.547 1.43 2.53.323.968.484 2.024.484 3.168 0 1.144-.161 2.207-.484 3.19a7.275 7.275 0 01-1.43 2.53c-.616.704-1.386 1.254-2.31 1.65-.924.396-1.987.594-3.19.594-1.203 0-2.266-.198-3.19-.594a6.541 6.541 0 01-2.332-1.65 7.275 7.275 0 01-1.43-2.53c-.323-.983-.484-2.046-.484-3.19zm3.74 0c0 .939.073 1.811.22 2.618.147.792.374 1.481.682 2.068a4.058 4.058 0 001.21 1.364c.499.323 1.093.484 1.782.484.63 0 1.166-.161 1.606-.484.44-.337.8-.792 1.078-1.364.279-.587.477-1.276.594-2.068.132-.807.198-1.68.198-2.618 0-.939-.073-1.804-.22-2.596-.132-.807-.352-1.496-.66-2.068-.293-.587-.69-1.041-1.188-1.364-.484-.337-1.078-.506-1.782-.506-.675 0-1.24.169-1.694.506-.455.323-.821.777-1.1 1.364-.264.572-.455 1.261-.572 2.068a20.259 20.259 0 00-.154 2.596zm17.532 6.226c.337.073.638.169.902.286.264.117.52.235.77.352V52h-6.776v-.836c.323-.176.63-.308.924-.396.293-.103.587-.183.88-.242V38.074c-.733-.161-1.335-.374-1.804-.638V36.6h2.332c.293 0 .623-.007.99-.022.381-.015.777-.03 1.188-.044.41-.03.829-.051 1.254-.066a17.5 17.5 0 011.232-.044 8.15 8.15 0 012.222.286c.69.176 1.276.447 1.76.814.499.367.88.829 1.144 1.386.279.543.418 1.18.418 1.914 0 1.056-.257 1.921-.77 2.596s-1.217 1.18-2.112 1.518c.587.924 1.21 1.87 1.87 2.838a43.12 43.12 0 002.09 2.772l1.056.704V52h-3.674l-.946-.726a14.305 14.305 0 01-1.804-2.794 43.492 43.492 0 01-1.364-3.146h-1.782v5.192zm1.1-12.672c-.455 0-.821.044-1.1.132v6.138h1.298c.748 0 1.386-.264 1.914-.792.528-.543.792-1.342.792-2.398 0-.543-.073-1.005-.22-1.386a2.498 2.498 0 00-.616-.968 2.462 2.462 0 00-.924-.55 3.598 3.598 0 00-1.144-.176zm17.474-1.254h5.896v.836c-.25.161-.536.3-.858.418a6.418 6.418 0 01-.88.22l-4.18 5.302c.337.47.733 1.005 1.188 1.606.454.587.938 1.203 1.452 1.848.513.63 1.041 1.276 1.584 1.936.542.645 1.07 1.261 1.584 1.848l1.056.638V52h-3.828l-.88-.616c-.352-.44-.726-.924-1.122-1.452-.382-.543-.763-1.1-1.144-1.672-.382-.587-.756-1.173-1.122-1.76a57.236 57.236 0 01-1.034-1.716h-.946v5.742c.322.059.616.147.88.264.264.117.491.242.682.374V52h-6.666v-.836a6.86 6.86 0 01.902-.374c.308-.117.608-.205.902-.264V38.074a4.648 4.648 0 01-.99-.242 4.667 4.667 0 01-.814-.396V36.6h6.666v.836a5.286 5.286 0 01-.704.352c-.264.117-.55.213-.858.286v5.588l1.298-.308 3.542-5.28a4.997 4.997 0 01-.88-.264 10.634 10.634 0 01-.726-.374V36.6zm10.295 13.574c.161.161.389.315.682.462.293.132.682.198 1.166.198.807 0 1.474-.205 2.002-.616.543-.425.814-1.012.814-1.76 0-.543-.176-.997-.528-1.364-.337-.367-.77-.704-1.298-1.012a25.96 25.96 0 00-1.694-.902 10.703 10.703 0 01-1.694-1.078 5.652 5.652 0 01-1.32-1.452c-.337-.572-.506-1.276-.506-2.112 0-.719.132-1.342.396-1.87a3.58 3.58 0 011.078-1.298 4.622 4.622 0 011.65-.77 7.59 7.59 0 012.046-.264 14.6 14.6 0 012.486.198 8.527 8.527 0 012.09.572c-.015.293-.044.63-.088 1.012-.029.381-.073.763-.132 1.144a20.06 20.06 0 01-.198 1.056 10.57 10.57 0 01-.176.814h-.902l-1.012-3.014c-.176-.088-.44-.169-.792-.242a4.956 4.956 0 00-1.056-.11c-.616 0-1.137.161-1.562.484-.425.323-.638.792-.638 1.408 0 .557.176 1.034.528 1.43.352.381.792.733 1.32 1.056.528.323 1.1.645 1.716.968.631.308 1.21.667 1.738 1.078.528.41.968.895 1.32 1.452.352.543.528 1.217.528 2.024 0 1.467-.499 2.603-1.496 3.41-.983.792-2.435 1.188-4.356 1.188a11.874 11.874 0 01-2.772-.33 12.276 12.276 0 01-1.144-.33c-.323-.117-.565-.242-.726-.374.015-.337.051-.697.11-1.078.059-.396.117-.785.176-1.166.073-.396.147-.77.22-1.122.073-.352.147-.66.22-.924h.902l.902 3.234z" fill="#fff"/></svg>