<?xml version="1.0" encoding="utf-8"?><svg viewBox="0 0 10 11" xmlns="http://www.w3.org/2000/svg" xmlns:xlink="http://www.w3.org/1999/xlink"><style>:root>svg{display:none}:root>svg:target{display:block}</style><svg viewBox="0 0 10 11" id="phone" xmlns="http://www.w3.org/2000/svg"><path d="M9 4.825c.014-1.713-1.392-3.284-3.135-3.5a2.454 2.454 0 01-.112-.019 1.573 1.573 0 00-.266-.03c-.357 0-.452.26-.478.416a.495.495 0 00.07.377c.118.167.326.196.493.22.05.007.095.014.134.023 1.566.363 2.093.933 2.35 2.544.007.04.01.088.013.14.01.192.034.592.45.592a.712.712 0 00.11-.009c.386-.061.374-.427.368-.603-.001-.05-.003-.096.001-.128A.178.178 0 009 4.825z"/><path d="M5.497 1.046c.04.003.079.006.11.011 2.247.36 3.28 1.465 3.566 3.817.005.04.006.088.007.14.003.184.009.566.404.574h.012a.38.38 0 00.293-.115c.123-.134.115-.333.108-.492-.002-.04-.004-.076-.003-.109.028-2.405-1.976-4.586-4.29-4.667l-.027.001a.186.186 0 01-.028.002c-.023 0-.051-.002-.081-.004C5.53.2 5.49.198 5.448.198c-.368 0-.438.272-.447.434-.02.375.328.402.496.414zM9.343 7.867l-.149-.123c-.253-.22-.523-.421-.784-.616a57.14 57.14 0 01-.163-.122c-.334-.251-.635-.374-.92-.374-.382 0-.715.227-.99.674-.123.198-.27.294-.453.294a.85.85 0 01-.364-.098c-1.08-.525-1.85-1.329-2.292-2.39-.213-.514-.144-.849.232-1.122.212-.155.609-.443.58-.995C4.01 2.368 2.719.48 2.175.267a.994.994 0 00-.72-.002C.827.49.378.885.154 1.409c-.216.505-.206 1.099.029 1.716.678 1.785 1.632 3.341 2.835 4.626 1.178 1.257 2.625 2.286 4.302 3.06.152.07.31.108.426.136.04.01.073.017.098.025a.156.156 0 00.042.006H7.9c.79 0 1.736-.772 2.027-1.653.255-.77-.21-1.152-.584-1.458z"/><path d="M5.51 3.433c-.126.003-.389.01-.481.29-.043.132-.038.246.015.34.079.136.229.178.365.201.496.083.75.37.8.903.024.248.184.421.389.421.015 0 .03 0 .046-.002.247-.031.366-.22.355-.564.004-.359-.175-.765-.48-1.09-.305-.325-.673-.508-1.008-.5z"/></svg><svg viewBox="0 0 10 9" id="tg" xmlns="http://www.w3.org/2000/svg"><path d="M3.924 5.684L3.759 8.09c.236 0 .339-.105.462-.231l1.11-1.098 2.298 1.743c.422.243.72.115.833-.402L9.972.785c.133-.645-.226-.897-.637-.74L.465 3.56c-.606.244-.597.593-.104.751l2.268.73L7.897 1.63c.248-.17.474-.076.288.094l-4.261 3.96z"/></svg></svg>