<svg width="62" height="62" viewBox="0 0 62 62" fill="none" xmlns="http://www.w3.org/2000/svg">
<path fill-rule="evenodd" clip-rule="evenodd" d="M15.9672 0.117996C8.45704 0.95529 2.1752 6.52894 0.466578 13.8712C-0.700794 18.8873 0.351029 24.2702 3.30074 28.377L3.96372 29.2999V35.8339C3.96372 42.0686 3.97476 42.3973 4.20598 43.0144C4.57154 43.9905 5.44476 44.72 6.48143 44.9155C7.15799 45.043 8.04698 44.8856 8.64691 44.532C8.8711 44.3999 10.7767 42.4164 12.8816 40.1246L16.7087 35.9575H18.3385H19.9684V37.2146V38.4716L19.5839 38.6308C18.9863 38.878 17.8657 40.0569 17.5099 40.8127C17.3348 41.1848 17.1346 41.8388 17.0653 42.2661C16.9076 43.2364 16.8967 56.5372 17.0526 57.6143C17.3617 59.7498 18.9918 61.489 21.0458 61.8753C21.9298 62.0416 40.0741 62.0416 40.9581 61.8753C43.0121 61.489 44.6422 59.7498 44.9512 57.6143C45.1072 56.5372 45.0963 43.2364 44.9386 42.2661C44.8693 41.8388 44.6691 41.1848 44.494 40.8127C44.1382 40.0569 43.0176 38.878 42.42 38.6308L42.0355 38.4716V37.2146V35.9575L43.8239 35.9555C48.8557 35.9494 53.2244 34.177 56.6963 30.7331C63.8496 23.637 63.7544 11.9743 56.4867 5.04971C53.4749 2.18016 49.996 0.559474 45.8898 0.113151C44.4741 -0.0406701 17.3515 -0.0363099 15.9672 0.117996ZM47.3704 2.33229C53.709 3.85318 58.3553 8.53939 59.6983 14.7659C59.8699 15.5613 59.9185 16.3073 59.915 18.0925C59.9111 20.0926 59.8732 20.5443 59.6251 21.5444C58.4976 26.0912 55.8325 29.6349 51.8063 31.941C49.3923 33.3238 46.5287 34.0074 43.112 34.0165L41.9455 34.0196L41.8666 33.3219C41.823 32.9382 41.6043 32.0918 41.3804 31.4411C39.9878 27.394 36.4689 24.584 32.1571 24.076C27.1668 23.4881 22.288 26.6035 20.6235 31.4411C20.3996 32.0918 20.1799 32.9464 20.1352 33.3403L20.0541 34.0563L17.9642 33.9776L15.8742 33.8989L11.8506 38.2892C9.63775 40.7039 7.67269 42.7551 7.48391 42.8473C7.0679 43.0503 6.60595 42.9542 6.27082 42.5947C6.0299 42.3364 6.02493 42.1948 6.02493 35.5123V28.6934L5.23743 27.6321C3.90346 25.8342 3.07461 24.1147 2.47832 21.9078C2.12015 20.5822 2.10148 20.4007 2.09311 18.1531C2.08354 15.5642 2.21812 14.6302 2.87274 12.7431C4.68624 7.51472 9.39501 3.38069 14.6983 2.361C15.2294 2.25889 15.7732 2.15158 15.9066 2.12251C16.04 2.09344 22.9693 2.07964 31.3051 2.09187C45.4418 2.11258 46.5221 2.12869 47.3704 2.33229ZM12.2441 13.0707C11.3205 13.2005 10.1623 13.7892 9.47297 14.4791C7.51434 16.4394 7.5141 19.5353 9.47261 21.4917C11.8993 23.9158 16.0046 23.2158 17.4494 20.1317C19.1489 16.5037 16.2073 12.5134 12.2441 13.0707ZM30.1532 13.0798C27.9333 13.4514 26.1872 15.4004 26.0567 17.6523C25.904 20.2891 27.6217 22.4289 30.2644 22.8939C32.1386 23.2237 34.3101 22.1972 35.3 20.5133C36.3525 18.7235 36.1192 16.2683 34.7481 14.7043C33.6448 13.4455 31.8206 12.8007 30.1532 13.0798ZM48.2546 13.0707C46.7458 13.2829 45.2232 14.4129 44.5577 15.8148C43.1246 18.8328 44.959 22.3535 48.248 22.8979C49.7988 23.1547 51.3894 22.6325 52.5313 21.4917C54.4828 19.5423 54.4893 16.4391 52.5462 14.4943C51.4187 13.366 49.8517 12.8461 48.2546 13.0707ZM14.2091 15.2926C14.9377 15.6367 15.3833 16.0888 15.7149 16.8208C16.1953 17.8808 15.9876 19.0461 15.1528 19.9735C14.4756 20.7259 13.823 20.9848 12.7722 20.9181C11.2292 20.8199 10.1452 19.7369 10.0468 18.1956C9.97991 17.1446 10.239 16.4941 10.9955 15.8149C11.9543 14.9536 13.0978 14.7678 14.2091 15.2926ZM32.5088 15.4164C34.5247 16.5966 34.4306 19.5484 32.3434 20.6057C30.597 21.4905 28.4905 20.4948 28.0964 18.5982C27.786 17.1046 28.6706 15.5866 30.1246 15.1174C30.7356 14.9202 31.9136 15.0679 32.5088 15.4164ZM49.9452 15.148C50.6139 15.3481 51.55 16.2212 51.8016 16.8794C52.3022 18.1889 51.7741 19.7802 50.5977 20.5068C49.8526 20.967 48.7299 21.0741 47.914 20.7628C47.2552 20.5115 46.3811 19.5763 46.1808 18.9084C45.4804 16.5732 47.6075 14.4483 49.9452 15.148ZM33.73 26.4351C36.5203 27.3441 38.6356 29.4547 39.571 32.2634C39.866 33.1493 39.8982 33.4374 39.9466 35.6245L39.9996 38.0166H39.0169H38.0343L38.0322 36.2301C38.0286 33.1796 37.4988 31.6347 35.9242 30.0833C34.4791 28.6594 32.9835 28.0379 31.0019 28.0379C29.0204 28.0379 27.5248 28.6594 26.0797 30.0833C24.5051 31.6347 23.9753 33.1796 23.9716 36.2301L23.9696 38.0166H22.987H22.0043L22.0573 35.6245C22.1056 33.4374 22.1379 33.1493 22.4329 32.2634C23.4683 29.1545 25.9117 26.939 29.1226 26.1975C30.2889 25.9283 32.5289 26.0437 33.73 26.4351ZM32.398 30.2101C33.9962 30.6742 35.4692 32.1593 35.786 33.626L35.8711 34.0196H31.0019H26.1328L26.2179 33.626C26.5257 32.2009 27.8782 30.7935 29.4558 30.2565C30.2525 29.9853 31.5531 29.9648 32.398 30.2101ZM35.9731 36.9871V38.0166H31.0019H26.0308V36.9871V35.9575H31.0019H35.9731V36.9871ZM41.3262 40.3511C41.703 40.536 42.1553 40.8757 42.3312 41.1062C43.0133 41.9996 43.0055 41.8959 43.0055 49.9783C43.0055 55.3379 42.9655 57.5614 42.8629 57.9034C42.6764 58.5254 41.8689 59.4316 41.2521 59.7116C40.79 59.9211 40.2102 59.9337 31.0019 59.9337C21.7937 59.9337 21.2139 59.9211 20.7518 59.7116C20.135 59.4316 19.3275 58.5254 19.141 57.9034C19.0384 57.5614 18.9984 55.3379 18.9984 49.9783C18.9984 41.9755 18.9956 42.0145 19.6262 41.1624C19.9741 40.6924 20.5812 40.3126 21.2962 40.1176C21.717 40.0028 24.0735 39.9729 31.2444 39.9912L40.6411 40.015L41.3262 40.3511ZM29.678 42.2058C28.0999 42.6297 26.8034 43.874 26.2693 45.4774C25.7061 47.1679 26.1576 49.1293 27.4107 50.4357L27.9708 51.0196V54.5104V58.0012H31.0019H34.0331V54.5104V51.0196L34.5932 50.4357C35.8463 49.1293 36.2978 47.1679 35.7346 45.4774C34.8857 42.9293 32.2618 41.5119 29.678 42.2058ZM32.275 44.3074C33.7267 44.9383 34.3938 46.868 33.6622 48.3199C33.4418 48.7574 32.6891 49.5113 32.2251 49.7594C31.9787 49.8911 31.9719 49.976 31.9719 52.9184V55.9422H31.0019H30.032V52.9184C30.032 49.976 30.0252 49.8911 29.7788 49.7594C29.3148 49.5113 28.5621 48.7574 28.3417 48.3199C27.8029 47.251 27.9837 45.9145 28.7869 45.0264C29.7151 44 30.9719 43.741 32.275 44.3074Z" fill="#D83838"/>
</svg>
