<svg width="63" height="63" viewBox="0 0 63 63" fill="none" xmlns="http://www.w3.org/2000/svg">
<path fill-rule="evenodd" clip-rule="evenodd" d="M8.56775 0.105987C7.54792 0.415722 6.70968 1.2402 6.41786 2.22109C6.28471 2.6689 6.22603 3.38583 6.22603 4.56656V6.26697H4.52244C3.33949 6.26697 2.62122 6.32554 2.17258 6.45844C1.42188 6.68105 0.657863 7.31677 0.268521 8.04293L0 8.54352V34.6316V60.7197L0.266548 61.212C0.580808 61.7922 1.18529 62.3858 1.78767 62.7056C2.20105 62.9252 2.87852 62.9361 17.9152 62.9674L33.6112 63L33.9734 62.6385C34.4429 62.1697 34.4435 61.7314 33.9752 61.264L33.6149 60.9043H18.1849H2.75499L2.39462 60.5446L2.03425 60.1849V34.648V9.11106L2.33174 8.76576L2.62936 8.42047L16.0116 8.3881L29.394 8.35574L29.4299 13.5565C29.4649 18.6384 29.4719 18.7688 29.7359 19.2612C29.8844 19.5383 30.2132 19.9467 30.4666 20.1687C31.395 20.9821 31.2905 20.9685 36.8834 21.0093L41.9585 21.0464L41.9998 22.4457C42.0376 23.7278 42.0661 23.8716 42.3399 24.1622C42.7385 24.5851 43.3576 24.5918 43.7727 24.1773C44.0713 23.8794 44.0753 23.8463 44.0753 21.6879V19.5004L37.4804 12.9144L30.8855 6.32849L19.5947 6.29588L8.30379 6.26315L8.34362 4.46984C8.38356 2.67813 8.38393 2.67616 8.72951 2.37971L9.07545 2.08302H22.7244H36.3733L42.3819 8.08501L48.3904 14.087V18.2453C48.3904 20.672 48.4398 22.4957 48.509 22.6248C48.7122 23.0037 49.313 23.182 49.7617 22.9965C50.4535 22.7105 50.4863 22.4773 50.4863 17.8463C50.4863 15.2399 50.4377 13.536 50.3573 13.32C50.2117 12.9289 37.7857 0.441318 37.2699 0.167639C36.9858 0.017017 34.874 -0.00734826 22.9068 0.00163491C15.1903 0.0074186 8.73764 0.0544264 8.56775 0.105987ZM39.6075 18.9176C39.1152 18.9382 37.2234 18.9382 35.4035 18.9176L32.0947 18.8803L31.7974 18.535L31.5 18.1897V14.0441V9.89838L36.0014 14.3894L40.5028 18.8803L39.6075 18.9176ZM13.5 11.7433C8.33536 12.7855 4.54821 17.0971 4.1739 22.3609C3.89145 26.3329 5.90671 30.3854 9.30822 32.6856C11.4699 34.1473 14.3192 34.8501 16.9137 34.5612C21.8122 34.0161 25.7733 30.5443 26.9597 25.7564C27.3394 24.224 27.3394 21.9046 26.9597 20.3721C25.8695 15.9724 22.2325 12.5372 17.8151 11.7349C16.6623 11.5256 14.5585 11.5296 13.5 11.7433ZM18.1233 13.9491C18.5301 14.0564 19.3901 14.4019 20.0342 14.7171C21.0378 15.2079 21.3741 15.4588 22.3837 16.4699C23.3863 17.4738 23.6478 17.824 24.1374 18.8188C24.9065 20.3809 25.1349 21.368 25.1344 23.1258C25.1342 24.2152 25.0707 24.7659 24.8589 25.5184C24.5416 26.6449 23.7728 28.1877 23.1981 28.8514L22.8019 29.3089L22.2898 28.2786C21.7894 27.2718 20.8761 26.1604 20.1145 25.6316L19.7633 25.3876L20.0783 24.9243C20.9646 23.6207 21.2066 21.6998 20.6633 20.2808C20.2662 19.2438 19.5253 18.2956 18.6633 17.721C17.61 17.019 16.8119 16.8105 15.4115 16.8717C14.442 16.914 14.1592 16.9787 13.4744 17.3152C10.5931 18.7311 9.594 22.3267 11.3601 24.9243L11.6751 25.3876L11.3238 25.6316C10.5623 26.1604 9.64899 27.2718 9.14856 28.2786L8.63643 29.3089L8.2403 28.8514C7.668 28.1906 6.89819 26.6483 6.57666 25.5184C6.35955 24.7554 6.29914 24.2305 6.30148 23.1258C6.3053 21.3647 6.53622 20.371 7.30245 18.8188C7.78475 17.8418 8.06277 17.4657 8.99458 16.5296C10.4799 15.0372 11.9264 14.2352 13.8699 13.8261C14.8721 13.6152 17.1012 13.6797 18.1233 13.9491ZM17.0137 19.176C18.6503 19.9352 19.3329 21.9775 18.4653 23.5193C17.7434 24.8018 16.4209 25.4137 15.0383 25.1048C13.637 24.7919 12.6089 23.5254 12.6025 22.1042C12.5984 21.1814 12.8547 20.5283 13.4752 19.8809C14.1167 19.2115 14.7519 18.9473 15.7192 18.9473C16.2412 18.9473 16.6924 19.027 17.0137 19.176ZM47.4855 25.3386C43.3827 26.0817 39.9591 28.9167 38.5301 32.7546C37.9943 34.1933 37.8888 34.9345 37.8247 37.7081L37.7621 40.4153L37.1637 40.9432C36.7821 41.2799 36.4183 41.7692 36.1594 42.294L35.7534 43.117L35.7183 51.1747C35.6843 58.9877 35.6908 59.2575 35.9349 60.0593C36.2527 61.1037 37.1076 62.0878 38.1341 62.591L38.8356 62.9348H49.3767H59.9178L60.4994 62.6666C61.3148 62.2906 62.2578 61.3668 62.6595 60.5505L63 59.8583V51.4879V43.1175L62.594 42.2943C62.3349 41.7688 61.9715 41.2802 61.5895 40.9432L60.991 40.4153L60.9317 37.6465C60.8648 34.5135 60.7187 33.736 59.8496 31.882C58.3558 28.696 55.7486 26.5217 52.274 25.5644C51.2912 25.2936 48.4685 25.1605 47.4855 25.3386ZM14.6096 27.1302C15.5158 27.3603 16.401 27.3154 17.4173 26.9878L18.0651 26.779L18.7426 27.2446C19.846 28.0032 20.7651 29.4671 20.8128 30.5418L20.8356 31.0567L19.911 31.5231C17.324 32.8279 14.1257 32.829 11.5286 31.5262C10.992 31.2569 10.5881 30.973 10.5643 30.8482C10.4875 30.4458 10.9075 29.3118 11.4138 28.5551C11.9935 27.6885 13.1681 26.7639 13.5616 26.864C13.6973 26.8985 14.1688 27.0183 14.6096 27.1302ZM52.0274 27.678C53.6881 28.2005 54.7582 28.8558 56.0395 30.1348C56.9472 31.0407 57.3328 31.5349 57.7267 32.2969C58.5951 33.9768 58.7668 34.7798 58.8374 37.4927L58.8991 39.8616H57.8516H56.8041L56.7436 37.6158C56.6943 35.7834 56.6354 35.2227 56.4236 34.5701C55.222 30.8669 51.3284 28.6933 47.6009 29.6447C45.1156 30.2792 43.1864 32.0804 42.3912 34.5086C42.1073 35.3759 42.0618 35.7531 42.0089 37.6773L41.9489 39.8616H40.9001H39.8513L39.9177 37.5542C39.9892 35.0722 40.1346 34.2566 40.7485 32.892C41.9864 30.1409 44.5981 28.0792 47.6599 27.4357C48.6104 27.236 51.0531 27.3715 52.0274 27.678ZM50.649 31.6776C52.0565 32.0435 53.0149 32.7414 53.8274 33.9915C54.4703 34.9807 54.6781 35.9918 54.6781 38.1322V39.8616H49.3767H44.0753L44.0778 38.3541C44.0824 35.4914 44.4385 34.3154 45.6754 33.078C47.0432 31.7095 48.8333 31.2056 50.649 31.6776ZM4.75027 37.927C4.07281 38.2692 3.96296 39.0896 4.52478 39.612C4.79059 39.8593 4.90673 39.8616 17.2669 39.8616C29.6996 39.8616 29.7418 39.8607 30.0655 39.6065C30.3914 39.3506 30.4973 38.806 30.3138 38.3289C30.0953 37.7604 30.3071 37.7695 17.2973 37.7714C7.75233 37.7728 4.98773 37.8071 4.75027 37.927ZM59.5253 42.1318C60.1396 42.3505 60.4563 42.6424 60.7338 43.2456C60.9459 43.7065 60.9605 44.2307 60.963 51.4636C60.9653 57.6788 60.9332 59.2672 60.7992 59.5874C60.578 60.1158 59.8361 60.7514 59.3348 60.8421C59.113 60.8822 54.4888 60.8988 49.0589 60.879L39.1861 60.8428L38.7201 60.4879C37.7601 59.7569 37.7931 60.0797 37.7931 51.4289C37.7931 44.2263 37.8075 43.7066 38.0196 43.2456C38.2971 42.6424 38.6138 42.3505 39.2282 42.1318C39.9223 41.8847 58.8312 41.8847 59.5253 42.1318ZM4.44933 43.4397C4.03052 43.9365 4.04347 44.3471 4.49223 44.795L4.85433 45.1565L17.3868 45.124L29.9191 45.0915L30.1548 44.801C30.4908 44.3867 30.4604 43.735 30.0877 43.3632L29.7852 43.061H17.2768H4.76852L4.44933 43.4397ZM48.1269 45.3385C45.532 46.1693 44.3559 49.3851 45.8456 51.5764C46.107 51.9607 46.1442 52.1798 46.1988 53.6555C46.2721 55.6284 46.4391 56.1263 47.2821 56.8827C47.9259 57.4605 48.5543 57.7052 49.391 57.7041C50.3328 57.703 50.8726 57.4769 51.5518 56.7991C52.374 55.979 52.5822 55.3126 52.5822 53.5028C52.5822 52.1998 52.5906 52.1606 53.0445 51.3408C53.4879 50.5403 53.5068 50.4579 53.5062 49.337C53.5057 48.2973 53.4678 48.0959 53.163 47.5177C52.4151 46.0985 51.1296 45.2681 49.5684 45.1957C49.029 45.1707 48.4814 45.225 48.1269 45.3385ZM50.3679 47.5284C51.6251 48.1919 51.8261 49.8201 50.7888 50.9367C50.5203 51.2258 50.5006 51.3573 50.4639 53.1114C50.4265 54.8916 50.4107 54.9933 50.1258 55.2956C49.758 55.6858 49.1709 55.7156 48.7264 55.3665C48.4184 55.1247 48.4117 55.0851 48.3707 53.2438L48.3288 51.3674L47.8715 50.7801C47.1194 49.8142 47.0971 48.8332 47.8086 48.0243C48.5239 47.211 49.4331 47.0349 50.3679 47.5284ZM4.53723 48.5372C4.20879 48.7668 4.07922 49.3104 4.24751 49.7523C4.52194 50.4727 4.0913 50.451 17.4972 50.4154L29.7541 50.3829L30.0723 50.0847C30.4948 49.6883 30.5102 49 30.1051 48.62L29.8197 48.3525H17.3106C6.3863 48.3525 4.7679 48.3759 4.53723 48.5372ZM4.75027 53.6783C4.07281 54.0205 3.96296 54.8409 4.52478 55.3633C4.78689 55.6072 4.93521 55.6129 11.0015 55.6129H17.2099L17.5124 55.3108C17.9366 54.8875 17.9146 54.3396 17.4547 53.8806L17.0943 53.5209L11.0746 53.5228C6.50712 53.5241 4.98131 53.5616 4.75027 53.6783Z" fill="#D83838"/>
</svg>
