<svg width="64" height="64" viewBox="0 0 64 64" fill="none" xmlns="http://www.w3.org/2000/svg">
<path fill-rule="evenodd" clip-rule="evenodd" d="M10.3707 0.22754C9.8941 0.390787 9.08334 1.14435 5.09787 5.12757C0.817542 9.40551 0.369484 9.89225 0.183502 10.4669C-0.00210409 11.0406 -0.018124 12.5122 0.0120385 26.2912L0.04533 41.4832L0.315917 41.9836C0.634939 42.5734 1.24858 43.1768 1.86009 43.502C2.26835 43.7191 2.73818 43.7373 8.78034 43.7704L15.2624 43.8061L15.6326 43.436C15.8361 43.2326 16.0027 42.9464 16.0027 42.8001C16.0027 42.5889 15.7297 41.9021 15.5927 41.7685C15.5773 41.7535 12.6733 41.7114 9.13953 41.6747L2.71428 41.6083L2.4124 41.2573L2.1104 40.9063V26.3399V11.7735H5.46683C9.46256 11.7735 9.85205 11.7012 10.7636 10.7902C11.6752 9.87899 11.7474 9.49008 11.7474 5.49359V2.13609L20.0033 2.16999C27.7348 2.20176 28.2734 2.21803 28.4826 2.42718C28.6914 2.63596 28.7102 3.20676 28.7686 11.1633L28.8312 19.6762L29.1824 19.978C29.6412 20.3724 30.1913 20.3704 30.589 19.9728L30.8963 19.6658L30.895 11.0599L30.8938 2.45408L30.5983 1.81973C30.253 1.07855 29.5746 0.474975 28.7846 0.205899C27.9403 -0.0816908 11.2156 -0.0620512 10.3707 0.22754ZM43.7866 0.131593C43.0436 0.357512 42.4915 0.855509 38.1348 5.22865C34.906 8.46957 33.4872 9.97819 33.3476 10.3189C33.1792 10.7298 33.1491 11.4762 33.1491 15.2346V19.6658L33.4563 19.9728C33.8541 20.3704 34.404 20.3724 34.863 19.9782L35.2141 19.6763L35.2504 15.732L35.2867 11.7875L38.88 11.7493L42.4732 11.711L43.1225 11.3689C43.4796 11.1806 43.9144 10.8398 44.0886 10.6115C44.7648 9.72538 44.7886 9.55875 44.7886 5.71051V2.14134H52.9959H61.2033L61.5691 2.50699L61.9349 2.87264V21.8895V40.9063L61.6329 41.2573L61.331 41.6083L54.9058 41.6747C51.372 41.7114 48.468 41.7535 48.4526 41.7685C48.3156 41.9021 48.0426 42.5889 48.0426 42.8001C48.0426 42.9464 48.2092 43.2326 48.4127 43.436L48.7829 43.8061L55.265 43.7704C61.3071 43.7373 61.777 43.7191 62.1852 43.502C62.7967 43.1768 63.4104 42.5734 63.7294 41.9836L64 41.4832V21.9061V2.32898L63.7237 1.8126C63.3379 1.09193 62.4248 0.323361 61.7533 0.154485C61.1142 -0.00638464 44.3107 -0.0277756 43.7866 0.131593ZM9.59548 6.39126C9.54479 9.8626 9.83553 9.57201 6.36245 9.62267C4.91865 9.64382 3.73743 9.61604 3.73743 9.56113C3.73743 9.42928 9.40011 3.76756 9.5319 3.76756C9.58797 3.76756 9.61663 4.94819 9.59548 6.39126ZM42.5255 9.10154C42.2691 9.58365 41.8882 9.64694 39.2455 9.64694H36.718L39.6582 6.70612L42.5983 3.76518L42.633 6.29957C42.6565 8.01598 42.6219 8.92015 42.5255 9.10154ZM6.17797 14.9904C5.36458 15.1871 5.08273 16.2188 5.68736 16.7868L6.01026 17.09L15.1679 17.1279C21.592 17.1545 24.4673 17.1245 24.8 17.0276C25.7888 16.7394 25.8759 15.4665 24.9338 15.0731C24.5953 14.9318 22.8987 14.9035 15.4748 14.9154C10.4992 14.9234 6.31564 14.9572 6.17797 14.9904ZM39.0841 15.0767C38.1699 15.4785 38.2745 16.7446 39.2453 17.0276C39.5781 17.1245 42.4533 17.1545 48.8774 17.1279L58.0351 17.09L58.358 16.7868C58.8029 16.3688 58.8029 15.6846 58.358 15.2666L58.0351 14.9634L48.7523 14.9354C41.1726 14.9125 39.3987 14.9384 39.0841 15.0767ZM5.92766 20.4244C5.28048 20.7781 5.1572 21.5852 5.67171 22.0994L5.97885 22.4065H15.4853H24.9917L25.3268 22.0084C25.7335 21.5254 25.6848 20.9923 25.1948 20.5613L24.8748 20.2799L15.5264 20.2836C9.00174 20.2864 6.10238 20.3288 5.92766 20.4244ZM38.8505 20.5613C38.3606 20.9923 38.3119 21.5254 38.7185 22.0084L39.0537 22.4065H48.56H58.0665L58.3736 22.0994C58.676 21.7973 58.7702 21.2836 58.6032 20.8484C58.3851 20.2806 58.3724 20.2799 48.4938 20.2799H39.1706L38.8505 20.5613ZM30.2079 22.5396C24.398 23.3288 19.7299 27.1558 17.8583 32.6641C16.8817 35.5385 16.8707 39.1218 17.8297 41.9892C18.57 44.2027 19.7709 46.1687 21.3844 47.8085C22.9895 49.4399 24.8938 50.6712 26.9794 51.4265L27.756 51.7077L27.7929 56.2901L27.8299 60.8727L28.1617 61.5801C28.5742 62.4594 29.3702 63.2502 30.2705 63.6751C30.8433 63.9455 31.1374 64 32.0227 64C32.9121 64 33.2025 63.9457 33.7942 63.6684C34.674 63.2561 35.4652 62.4605 35.8904 61.5607L36.2154 60.8727L36.2524 56.2901L36.2894 51.7077L37.0659 51.4284C42.0524 49.6349 45.7414 45.2451 46.7229 39.937C46.9673 38.6148 46.9718 36.1411 46.7322 34.7758C45.6742 28.7456 40.8764 23.8667 34.878 22.7207C33.5673 22.4704 31.3508 22.3843 30.2079 22.5396ZM32.8642 24.611L33.1426 24.6857L33.1771 33.3346L33.2116 41.9836L33.5592 42.7254C34.0285 43.727 34.6273 44.4279 35.5257 45.0276C36.5564 45.7156 37.5498 45.924 39.7976 45.924H41.5782L41.2747 46.2475C40.6739 46.8882 39.2793 47.9513 38.3306 48.4916C34.4046 50.7278 29.6407 50.7278 25.7147 48.4916C24.766 47.9513 23.3714 46.8882 22.7706 46.2475L22.4671 45.924H24.2241C25.1904 45.924 26.2844 45.867 26.6552 45.7972C28.245 45.4981 29.7145 44.3451 30.4297 42.8361L30.8337 41.9836L30.8682 33.3294C30.9005 25.2598 30.9174 24.6714 31.1185 24.6186C31.4486 24.5321 32.5516 24.5273 32.8642 24.611ZM28.7686 33.2128V41.3921L28.4198 42.0631C28.0398 42.7942 27.2309 43.4412 26.4128 43.6682C26.1597 43.7385 24.8203 43.7963 23.4363 43.7967L20.9201 43.7974L20.4121 42.7029C20.1327 42.1009 19.8118 41.2424 19.6991 40.7952C19.5862 40.348 19.4649 39.8835 19.4295 39.7632C19.3695 39.5595 19.5515 39.5441 22.0331 39.5424C24.9295 39.5404 25.2002 39.4882 25.4945 38.8746C25.6979 38.4507 25.6047 38.0117 25.2391 37.6714C24.9819 37.4318 24.8068 37.4177 22.0944 37.4177H19.2221L19.2859 36.3231C19.321 35.7211 19.4758 34.7642 19.6299 34.1965L19.91 33.1645H22.2157C24.8231 33.1645 25.2423 33.0709 25.5082 32.4293C25.7032 31.959 25.5142 31.3698 25.0907 31.127C24.9308 31.0353 24.0676 30.9506 22.9089 30.9128L20.9917 30.8503L21.6108 29.9746C22.7157 28.4121 24.5244 26.8553 26.2655 25.9684C26.9018 25.6443 28.4576 25.0422 28.6747 25.0361C28.7263 25.0345 28.7686 28.7142 28.7686 33.2128ZM36.369 25.3523C38.8349 26.2797 41.0865 28.0141 42.5319 30.0997L43.052 30.8503L41.1356 30.9128C39.9776 30.9506 39.1145 31.0354 38.9547 31.127C38.5311 31.3698 38.3422 31.959 38.5372 32.4293C38.803 33.0709 39.2223 33.1645 41.8296 33.1645H44.1354L44.4155 34.1965C44.5695 34.7642 44.7244 35.7211 44.7594 36.3231L44.8232 37.4177H41.9274C39.2107 37.4177 39.0161 37.4329 38.7842 37.6647C38.4407 38.0081 38.3529 38.4623 38.5508 38.8746C38.8452 39.4882 39.1159 39.5404 42.0122 39.5424C44.4938 39.5441 44.6758 39.5595 44.6159 39.7632C44.5804 39.8835 44.4592 40.348 44.3463 40.7952C44.2335 41.2424 43.9126 42.1009 43.6333 42.7029L43.1252 43.7974L40.609 43.7967C39.225 43.7963 37.8856 43.7385 37.6325 43.6682C36.8144 43.4412 36.0055 42.7942 35.6255 42.0631L35.2767 41.3921V33.2128C35.2767 27.9706 35.3206 25.0334 35.399 25.0334C35.4663 25.0334 35.9027 25.1769 36.369 25.3523ZM5.67171 25.966C5.16521 26.4721 5.26621 27.2882 5.87409 27.6025C6.40062 27.8747 17.3445 27.8747 17.871 27.6025C18.4789 27.2882 18.5799 26.4721 18.0734 25.966L17.7663 25.6589H11.8726H5.97885L5.67171 25.966ZM45.9719 25.966C45.4654 26.4721 45.5664 27.2882 46.1743 27.6025C46.7008 27.8747 57.6447 27.8747 58.1712 27.6025C58.7791 27.2882 58.8801 26.4721 58.3736 25.966L58.0665 25.6589H52.1728H46.279L45.9719 25.966ZM6.17797 31.0024C5.36458 31.199 5.08273 32.2308 5.68723 32.7987L6.01001 33.1019L10.3493 33.1363C14.2988 33.1675 14.7277 33.1507 15.1252 32.9487C15.9504 32.5293 15.9504 31.5452 15.1252 31.132C14.734 30.936 14.2585 30.9147 10.5584 30.9276C8.28685 30.9355 6.31564 30.9691 6.17797 31.0024ZM48.9201 31.1286C48.4052 31.3904 48.1889 31.878 48.364 32.3827C48.4329 32.5811 48.6681 32.8206 48.9201 32.9487C49.3176 33.1507 49.7465 33.1675 53.696 33.1363L58.0353 33.1019L58.3581 32.7987C58.5908 32.5802 58.6809 32.3678 58.6809 32.0387C58.6809 31.7095 58.5908 31.4971 58.3581 31.2786L58.0353 30.9754L53.696 30.941C49.7465 30.9098 49.3176 30.9266 48.9201 31.1286ZM5.92766 36.4336C5.27973 36.7948 5.15732 37.5972 5.67171 38.1113L5.97885 38.4184H10.0979C14.0753 38.4184 14.2281 38.4095 14.5465 38.1591C14.9568 37.8366 15.0011 37.0992 14.6371 36.6497L14.3981 36.3544L10.288 36.3242C7.44467 36.3033 6.10087 36.3371 5.92766 36.4336ZM49.7091 36.4178C49.0853 36.669 48.9568 37.733 49.4988 38.1591C49.8172 38.4095 49.97 38.4184 53.9475 38.4184H58.0665L58.3736 38.1113C58.5616 37.9235 58.6809 37.6605 58.6809 37.4336C58.6809 36.3196 58.5576 36.2903 53.8999 36.2997C51.7454 36.3041 49.8595 36.3572 49.7091 36.4178ZM34.1503 56.2169C34.1503 60.6234 34.1359 60.7175 33.3581 61.4001C32.2995 62.3291 30.6167 61.9188 30.0641 60.5972C29.9341 60.2862 29.895 59.2731 29.895 56.2169V52.2412H32.0227H34.1503V56.2169Z" fill="#D83838"/>
</svg>
