<svg width="26" height="6" viewBox="0 0 26 6" fill="none" xmlns="http://www.w3.org/2000/svg">
<path fill-rule="evenodd" clip-rule="evenodd" d="M5.1489 0.140589C5.33521 -0.0468629 5.63727 -0.0468629 5.82357 0.140589L10.4954 4.84118L15.1673 0.140589C15.3536 -0.0468629 15.6556 -0.0468629 15.8419 0.140589L20.5138 4.84118L25.1856 0.140589C25.3719 -0.0468629 25.674 -0.0468629 25.8603 0.140589C26.0466 0.32804 26.0466 0.63196 25.8603 0.819411L20.8511 5.85941C20.6648 6.04686 20.3627 6.04686 20.1764 5.85941L15.5046 1.15882L10.8327 5.85941C10.6464 6.04686 10.3444 6.04686 10.1581 5.85941L5.48624 1.15882L0.8144 5.85941C0.628094 6.04686 0.326034 6.04686 0.139729 5.85941C-0.0465763 5.67196 -0.0465763 5.36804 0.139729 5.18059L5.1489 0.140589Z" fill="white"/>
</svg>
