<svg width="55" height="13" viewBox="0 0 55 13" fill="none" xmlns="http://www.w3.org/2000/svg">
<path fill-rule="evenodd" clip-rule="evenodd" d="M10.7929 0.292893C11.1834 -0.0976311 11.8166 -0.0976311 12.2071 0.292893L22 10.0858L31.7929 0.292893C32.1834 -0.0976311 32.8166 -0.0976311 33.2071 0.292893L43 10.0858L52.7929 0.292893C53.1834 -0.0976311 53.8166 -0.0976311 54.2071 0.292893C54.5976 0.683417 54.5976 1.31658 54.2071 1.70711L43.7071 12.2071C43.3166 12.5976 42.6834 12.5976 42.2929 12.2071L32.5 2.41421L22.7071 12.2071C22.3166 12.5976 21.6834 12.5976 21.2929 12.2071L11.5 2.41421L1.70711 12.2071C1.31658 12.5976 0.683417 12.5976 0.292893 12.2071C-0.0976311 11.8166 -0.0976311 11.1834 0.292893 10.7929L10.7929 0.292893Z" fill="#D83838"/>
</svg>
