<svg width="14" height="14" viewBox="0 0 14 14" fill="none" xmlns="http://www.w3.org/2000/svg">
<path d="M11.3086 5.38462H10.232C10.2316 4.95632 10.0613 4.54569 9.75858 4.24284C9.45584 3.93999 9.04534 3.76966 8.6172 3.76923V2.69231C9.33073 2.69316 10.0148 2.97709 10.5194 3.48181C11.0239 3.98653 11.3077 4.67083 11.3086 5.38462Z" fill="white"/>
<path d="M13.4617 5.38462H12.3851C12.384 4.3853 11.9867 3.42725 11.2803 2.72063C10.5739 2.01401 9.61617 1.61653 8.6172 1.61539V0.538462C9.9016 0.539887 11.133 1.05092 12.0412 1.95944C12.9494 2.86796 13.4603 4.09977 13.4617 5.38462Z" fill="white"/>
<path d="M12.3851 14H12.2936C1.71647 13.3915 0.214678 4.46385 0.00475002 1.73923C-0.0280601 1.3121 0.110082 0.889414 0.388791 0.56416C0.6675 0.238905 1.06395 0.0377163 1.49094 0.00484669C1.53364 0.00161592 1.57652 5.04857e-07 1.61958 5.04857e-07H4.45631C4.67192 -0.000208291 4.88263 0.0643519 5.06113 0.185318C5.23964 0.306285 5.37773 0.478084 5.4575 0.678462L6.27569 2.69231C6.35446 2.88806 6.37401 3.10266 6.33191 3.30943C6.2898 3.51621 6.18789 3.70605 6.03884 3.85539L4.89231 5.01308C5.07068 6.03148 5.55783 6.97038 6.28771 7.70243C7.01759 8.43448 7.95487 8.92428 8.97246 9.10538L10.1405 7.94769C10.292 7.80024 10.4836 7.70067 10.6913 7.66141C10.899 7.62215 11.1137 7.64494 11.3086 7.72692L13.3379 8.54C13.5352 8.62232 13.7035 8.76153 13.8214 8.9399C13.9393 9.11827 14.0015 9.32771 14 9.54154V12.3846C14 12.813 13.8298 13.2239 13.527 13.5269C13.2242 13.8298 12.8134 14 12.3851 14ZM1.61958 1.07692C1.5489 1.07671 1.47886 1.09043 1.41347 1.11729C1.34808 1.14416 1.28862 1.18364 1.23849 1.23349C1.18836 1.28334 1.14853 1.34258 1.12128 1.40783C1.09404 1.47308 1.0799 1.54306 1.07969 1.61377C1.07969 1.62885 1.08023 1.64374 1.08131 1.65846C1.32891 4.84615 2.91683 12.3846 12.3528 12.9231C12.4953 12.9316 12.6353 12.8832 12.7421 12.7885C12.8489 12.6938 12.9137 12.5605 12.9223 12.418L12.9234 12.3846V9.54154L10.8941 8.72846L9.34925 10.2631L9.09088 10.2308C4.40786 9.64385 3.77269 4.95923 3.77269 4.91077L3.7404 4.65231L5.26911 3.10692L4.46169 1.07692H1.61958Z" fill="white"/>
</svg>
