<svg width="130" height="59" viewBox="0 0 130 59" fill="none" xmlns="http://www.w3.org/2000/svg">
<path d="M0.53782 11.3501L2.15128 5.94903C2.25293 5.5407 2.8085 4.89365 3.22692 4.86881H10.2186C10.5766 4.84007 10.9362 4.84007 11.2942 4.86881H15.5968C15.9119 4.90067 15.9932 5.12428 16.1346 5.40892L16.6724 6.48914C16.8959 6.82524 17.0766 7.18814 17.2102 7.56936L17.7481 9.72979C17.8083 10.0895 17.9229 10.2699 18.2859 10.2699C18.4188 10.2436 18.5409 10.1782 18.6367 10.0821C18.7324 9.98588 18.7975 9.86325 18.8237 9.72979V7.02925C18.8237 6.03112 18.274 5.17559 17.7481 4.3287C17.251 3.48904 16.5411 2.79674 15.6908 2.32234C14.8405 1.84795 13.8802 1.60841 12.9077 1.62815H11.832C11.5798 1.62815 11.4722 1.26736 11.2942 1.08804C10.3963 0.325766 9.24107 -0.0609458 8.0673 0.00782147H7.52948C5.78555 0.0176086 4.09009 0.585169 2.6891 1.62815C2.29236 1.94771 1.93166 2.30994 1.61346 2.70837V3.24848C0.785755 4.29197 0 5.15507 0 6.48914V11.3501C0 11.4679 0.420575 11.3501 0.53782 11.3501C0.504475 11.4743 0.665821 11.3501 0.53782 11.3501Z" fill="#313131"/>
<path d="M9.68144 50.2377V38.8954C9.65856 38.6825 9.69709 38.4675 9.79244 38.276C9.88779 38.0845 10.0359 37.9245 10.2193 37.8152C10.7192 37.4608 11.0932 36.9552 11.2867 36.3722C11.4802 35.7892 11.4831 35.1593 11.2949 34.5745C11.1996 34.085 10.9269 33.6483 10.5295 33.349C10.1321 33.0496 9.63831 32.909 9.14362 32.9542C7.98408 32.9445 6.80357 33.4641 6.45452 34.5745C6.26722 35.1594 6.27052 35.7889 6.46397 36.3718C6.65741 36.9546 7.03091 37.4602 7.53016 37.8152C7.71605 37.9218 7.86634 38.0812 7.96206 38.2735C8.05778 38.4657 8.09464 38.6822 8.06798 38.8954C8.04862 42.5444 8.06798 46.0486 8.06798 49.6976V50.2377L2.68978 39.9756C2.08151 38.6945 1.65233 37.4868 1.07632 36.1949C0.951121 35.8458 0.951121 35.4638 1.07632 35.1147C2.98741 32.4181 4.10554 29.2366 4.30324 25.9328C4.32314 25.8437 4.26237 26.0144 4.30324 25.9328H13.4462C13.7436 27.3371 13.6419 28.3703 13.984 29.7136C14.5584 31.6582 15.4686 33.4864 16.6731 35.1147C16.7691 35.2783 16.8198 35.4648 16.8198 35.6548C16.8198 35.8447 16.7691 36.0312 16.6731 36.1949" fill="#313131"/>
<path d="M14.522 24.3125V25.3927C14.3558 25.8 13.8826 26.5134 13.4464 26.4729H4.84126C4.57312 26.4258 4.32597 26.2968 4.13348 26.1035C3.941 25.9102 3.81254 25.662 3.76562 25.3927V24.3125H14.522Z" fill="#313131"/>
<path d="M9.14258 26.4747L11.2939 25.3945V27.555L9.14258 26.4747Z" fill="#FFFCF8"/>
<path d="M8.60636 26.4747L6.45508 27.555V25.3945L8.60636 26.4747Z" fill="#FFFCF8"/>
<path d="M8.60563 51.3163C8.23345 51.2374 7.19008 52.4089 7.52999 53.4767C8.02317 55.0695 11.4071 55.5729 12.3704 55.6372C15.7167 55.8635 16.8235 54.4203 19.8998 55.097C21.8812 55.5243 22.4061 56.2351 22.5889 56.7174C22.8041 57.3002 22.3614 58.1924 22.5889 58.3377C22.8164 58.483 23.4946 57.8192 23.6646 57.2575C23.7369 56.964 23.7248 56.6559 23.6296 56.369C23.5344 56.0822 23.36 55.8284 23.1268 55.6372C22.5352 55.0565 21.7688 54.7427 20.4377 54.5569C18.4219 54.262 17.1855 54.5569 15.0595 54.5569C13.9608 54.5662 12.8689 54.3835 11.8325 54.0168C10.0233 53.5534 9.27091 53.1375 9.14345 52.9366C8.65242 52.1378 8.86539 51.3714 8.60563 51.3163Z" fill="#313131"/>
<path d="M54.8025 13.074C54.2158 12.986 53.5998 12.7733 52.9545 12.436V11.6H58.4985V12.436C58.2491 12.5973 57.9851 12.7293 57.7065 12.832C57.4278 12.9347 57.1565 13.0153 56.8925 13.074L52.9985 27L50.7105 27.264L47.3005 16.616L43.9785 27L41.6685 27.264L37.3785 13.074C37.0705 13.0153 36.7845 12.9347 36.5205 12.832C36.2565 12.7147 36.0071 12.5827 35.7725 12.436V11.6H42.9005V12.436C42.6511 12.568 42.3651 12.6927 42.0425 12.81C41.7345 12.9127 41.4118 13.0007 41.0745 13.074L43.1205 20.84L43.5825 23.7H43.6265L44.3965 20.73L47.3225 11.6H48.6205L51.7445 20.62L52.4925 23.48H52.5365L53.0425 20.576L54.8025 13.074ZM64.0469 25.526C64.3843 25.5993 64.6849 25.6947 64.9489 25.812C65.2129 25.9293 65.4696 26.0467 65.7189 26.164V27H58.9429V26.164C59.2656 25.988 59.5736 25.856 59.8669 25.768C60.1603 25.6653 60.4536 25.5847 60.7469 25.526V13.074C60.0136 12.9127 59.4123 12.7 58.9429 12.436V11.6H61.2749C61.5683 11.6 61.8983 11.5927 62.2649 11.578C62.6463 11.5633 63.0423 11.5487 63.4529 11.534C63.8636 11.5047 64.2816 11.4827 64.7069 11.468C65.1323 11.4387 65.5429 11.424 65.9389 11.424C66.7456 11.424 67.4863 11.5193 68.1609 11.71C68.8503 11.886 69.4369 12.1573 69.9209 12.524C70.4196 12.8907 70.8009 13.3527 71.0649 13.91C71.3436 14.4527 71.4829 15.0907 71.4829 15.824C71.4829 16.88 71.2263 17.7453 70.7129 18.42C70.1996 19.0947 69.4956 19.6007 68.6009 19.938C69.1876 20.862 69.8109 21.808 70.4709 22.776C71.1309 23.7293 71.8276 24.6533 72.5609 25.548L73.6169 26.252V27H69.9429L68.9969 26.274C68.3223 25.4673 67.7209 24.536 67.1929 23.48C66.6796 22.4093 66.2249 21.3607 65.8289 20.334H64.0469V25.526ZM65.1469 12.854C64.6923 12.854 64.3256 12.898 64.0469 12.986V19.124H65.3449C66.0929 19.124 66.7309 18.86 67.2589 18.332C67.7869 17.7893 68.0509 16.99 68.0509 15.934C68.0509 15.3913 67.9776 14.9293 67.8309 14.548C67.6843 14.152 67.4789 13.8293 67.2149 13.58C66.9509 13.3307 66.6429 13.1473 66.2909 13.03C65.9389 12.9127 65.5576 12.854 65.1469 12.854ZM81.3668 27H74.5028V26.164C75.0894 25.8413 75.6834 25.6287 76.2848 25.526V13.074C75.9914 13.03 75.6834 12.9493 75.3608 12.832C75.0381 12.7147 74.7521 12.5827 74.5028 12.436V11.6H81.3668V12.436C81.1028 12.5973 80.8094 12.7367 80.4868 12.854C80.1788 12.9567 79.8781 13.03 79.5848 13.074V25.526C79.8781 25.5847 80.1788 25.6653 80.4868 25.768C80.8094 25.8707 81.1028 26.0027 81.3668 26.164V27ZM93.1383 27H85.5703V26.164C85.8637 26.0467 86.1937 25.9293 86.5603 25.812C86.9417 25.68 87.323 25.5847 87.7043 25.526V13.03H85.1523L83.7443 16.792H82.8423C82.7837 16.4987 82.725 16.1247 82.6663 15.67C82.6077 15.2153 82.5563 14.746 82.5123 14.262C82.4683 13.778 82.4317 13.3013 82.4023 12.832C82.373 12.348 82.3583 11.9373 82.3583 11.6H96.3503C96.3503 11.952 96.3357 12.3627 96.3063 12.832C96.277 13.3013 96.2403 13.778 96.1963 14.262C96.1523 14.746 96.101 15.2153 96.0423 15.67C95.9837 16.11 95.925 16.484 95.8663 16.792H94.9643L93.5563 13.03H91.0043V25.526C91.3857 25.5993 91.7597 25.6873 92.1263 25.79C92.5077 25.8927 92.845 26.0173 93.1383 26.164V27ZM108.693 11.6C108.663 12.26 108.612 12.942 108.539 13.646C108.465 14.35 108.37 15.01 108.253 15.626H107.351L106.339 13.03H102.225V18.42H104.909L105.877 16.726H106.581C106.654 17.4447 106.691 18.244 106.691 19.124C106.691 20.004 106.654 20.8253 106.581 21.588H105.877L104.909 19.85H102.225V25.57H106.515L107.681 22.776H108.583C108.641 23.0547 108.7 23.37 108.759 23.722C108.817 24.074 108.861 24.4407 108.891 24.822C108.935 25.1887 108.964 25.5627 108.979 25.944C109.008 26.3253 109.023 26.6773 109.023 27H97.1207V26.164C97.37 26.032 97.6487 25.9073 97.9567 25.79C98.2647 25.6727 98.5873 25.5847 98.9247 25.526V13.074C98.6313 13.0153 98.316 12.9347 97.9787 12.832C97.656 12.7147 97.37 12.5827 97.1207 12.436V11.6H108.693ZM115.502 25.526C115.839 25.5993 116.14 25.6947 116.404 25.812C116.668 25.9293 116.925 26.0467 117.174 26.164V27H110.398V26.164C110.721 25.988 111.029 25.856 111.322 25.768C111.615 25.6653 111.909 25.5847 112.202 25.526V13.074C111.469 12.9127 110.867 12.7 110.398 12.436V11.6H112.73C113.023 11.6 113.353 11.5927 113.72 11.578C114.101 11.5633 114.497 11.5487 114.908 11.534C115.319 11.5047 115.737 11.4827 116.162 11.468C116.587 11.4387 116.998 11.424 117.394 11.424C118.201 11.424 118.941 11.5193 119.616 11.71C120.305 11.886 120.892 12.1573 121.376 12.524C121.875 12.8907 122.256 13.3527 122.52 13.91C122.799 14.4527 122.938 15.0907 122.938 15.824C122.938 16.88 122.681 17.7453 122.168 18.42C121.655 19.0947 120.951 19.6007 120.056 19.938C120.643 20.862 121.266 21.808 121.926 22.776C122.586 23.7293 123.283 24.6533 124.016 25.548L125.072 26.252V27H121.398L120.452 26.274C119.777 25.4673 119.176 24.536 118.648 23.48C118.135 22.4093 117.68 21.3607 117.284 20.334H115.502V25.526ZM116.602 12.854C116.147 12.854 115.781 12.898 115.502 12.986V19.124H116.8C117.548 19.124 118.186 18.86 118.714 18.332C119.242 17.7893 119.506 16.99 119.506 15.934C119.506 15.3913 119.433 14.9293 119.286 14.548C119.139 14.152 118.934 13.8293 118.67 13.58C118.406 13.3307 118.098 13.1473 117.746 13.03C117.394 12.9127 117.013 12.854 116.602 12.854ZM61.2585 38.074C60.6719 37.986 60.0558 37.7733 59.4105 37.436V36.6H64.9545V37.436C64.7052 37.5973 64.4412 37.7293 64.1625 37.832C63.8838 37.9347 63.6125 38.0153 63.3485 38.074L59.4545 52L57.1665 52.264L53.7565 41.616L50.4345 52L48.1245 52.264L43.8345 38.074C43.5265 38.0153 43.2405 37.9347 42.9765 37.832C42.7125 37.7147 42.4632 37.5827 42.2285 37.436V36.6H49.3565V37.436C49.1072 37.568 48.8212 37.6927 48.4985 37.81C48.1905 37.9127 47.8678 38.0007 47.5305 38.074L49.5765 45.84L50.0385 48.7H50.0825L50.8525 45.73L53.7785 36.6H55.0765L58.2005 45.62L58.9485 48.48H58.9925L59.4985 45.576L61.2585 38.074ZM65.817 44.3C65.817 43.156 65.9783 42.1 66.301 41.132C66.6237 40.1493 67.1003 39.306 67.731 38.602C68.3617 37.8833 69.139 37.326 70.063 36.93C70.987 36.534 72.0503 36.336 73.253 36.336C74.4557 36.336 75.519 36.534 76.443 36.93C77.367 37.326 78.137 37.8833 78.753 38.602C79.3837 39.306 79.8603 40.1493 80.183 41.132C80.5057 42.1 80.667 43.156 80.667 44.3C80.667 45.444 80.5057 46.5073 80.183 47.49C79.8603 48.458 79.3837 49.3013 78.753 50.02C78.137 50.724 77.367 51.274 76.443 51.67C75.519 52.066 74.4557 52.264 73.253 52.264C72.0503 52.264 70.987 52.066 70.063 51.67C69.139 51.274 68.3617 50.724 67.731 50.02C67.1003 49.3013 66.6237 48.458 66.301 47.49C65.9783 46.5073 65.817 45.444 65.817 44.3ZM69.557 44.3C69.557 45.2387 69.6303 46.1113 69.777 46.918C69.9237 47.71 70.151 48.3993 70.459 48.986C70.7817 49.558 71.185 50.0127 71.669 50.35C72.1677 50.6727 72.7617 50.834 73.451 50.834C74.0817 50.834 74.617 50.6727 75.057 50.35C75.497 50.0127 75.8563 49.558 76.135 48.986C76.4137 48.3993 76.6117 47.71 76.729 46.918C76.861 46.1113 76.927 45.2387 76.927 44.3C76.927 43.3613 76.8537 42.496 76.707 41.704C76.575 40.8973 76.355 40.208 76.047 39.636C75.7537 39.0493 75.3577 38.5947 74.859 38.272C74.375 37.9347 73.781 37.766 73.077 37.766C72.4023 37.766 71.8377 37.9347 71.383 38.272C70.9283 38.5947 70.5617 39.0493 70.283 39.636C70.019 40.208 69.8283 40.8973 69.711 41.704C69.6083 42.496 69.557 43.3613 69.557 44.3ZM87.0889 50.526C87.4263 50.5993 87.7269 50.6947 87.9909 50.812C88.2549 50.9293 88.5116 51.0467 88.7609 51.164V52H81.9849V51.164C82.3076 50.988 82.6156 50.856 82.9089 50.768C83.2023 50.6653 83.4956 50.5847 83.7889 50.526V38.074C83.0556 37.9127 82.4543 37.7 81.9849 37.436V36.6H84.3169C84.6103 36.6 84.9403 36.5927 85.3069 36.578C85.6883 36.5633 86.0843 36.5487 86.4949 36.534C86.9056 36.5047 87.3236 36.4827 87.7489 36.468C88.1743 36.4387 88.5849 36.424 88.9809 36.424C89.7876 36.424 90.5283 36.5193 91.2029 36.71C91.8923 36.886 92.4789 37.1573 92.9629 37.524C93.4616 37.8907 93.8429 38.3527 94.1069 38.91C94.3856 39.4527 94.5249 40.0907 94.5249 40.824C94.5249 41.88 94.2683 42.7453 93.7549 43.42C93.2416 44.0947 92.5376 44.6007 91.6429 44.938C92.2296 45.862 92.8529 46.808 93.5129 47.776C94.1729 48.7293 94.8696 49.6533 95.6029 50.548L96.6589 51.252V52H92.9849L92.0389 51.274C91.3643 50.4673 90.7629 49.536 90.2349 48.48C89.7216 47.4093 89.2669 46.3607 88.8709 45.334H87.0889V50.526ZM88.1889 37.854C87.7343 37.854 87.3676 37.898 87.0889 37.986V44.124H88.3869C89.1349 44.124 89.7729 43.86 90.3009 43.332C90.8289 42.7893 91.0929 41.99 91.0929 40.934C91.0929 40.3913 91.0196 39.9293 90.8729 39.548C90.7263 39.152 90.5209 38.8293 90.2569 38.58C89.9929 38.3307 89.6849 38.1473 89.3329 38.03C88.9809 37.9127 88.5996 37.854 88.1889 37.854ZM105.663 36.6H111.559V37.436C111.309 37.5973 111.023 37.7367 110.701 37.854C110.378 37.9567 110.085 38.03 109.821 38.074L105.641 43.376C105.978 43.8453 106.374 44.3807 106.829 44.982C107.283 45.5687 107.767 46.1847 108.281 46.83C108.794 47.4607 109.322 48.106 109.865 48.766C110.407 49.4113 110.935 50.0273 111.449 50.614L112.505 51.252V52H108.677L107.797 51.384C107.445 50.944 107.071 50.46 106.675 49.932C106.293 49.3893 105.912 48.832 105.531 48.26C105.149 47.6733 104.775 47.0867 104.409 46.5C104.042 45.9133 103.697 45.3413 103.375 44.784H102.429V50.526C102.751 50.5847 103.045 50.6727 103.309 50.79C103.573 50.9073 103.8 51.032 103.991 51.164V52H97.3248V51.164C97.6181 51.0173 97.9188 50.8927 98.2268 50.79C98.5348 50.6727 98.8354 50.5847 99.1288 50.526V38.074C98.7914 38.03 98.4614 37.9493 98.1388 37.832C97.8308 37.7147 97.5594 37.5827 97.3248 37.436V36.6H103.991V37.436C103.8 37.5533 103.565 37.6707 103.287 37.788C103.023 37.9053 102.737 38.0007 102.429 38.074V43.662L103.727 43.354L107.269 38.074C106.975 38.0153 106.682 37.9273 106.389 37.81C106.11 37.678 105.868 37.5533 105.663 37.436V36.6ZM115.958 50.174C116.119 50.3353 116.347 50.4893 116.64 50.636C116.933 50.768 117.322 50.834 117.806 50.834C118.613 50.834 119.28 50.6287 119.808 50.218C120.351 49.7927 120.622 49.206 120.622 48.458C120.622 47.9153 120.446 47.4607 120.094 47.094C119.757 46.7273 119.324 46.39 118.796 46.082C118.268 45.774 117.703 45.4733 117.102 45.18C116.501 44.872 115.936 44.5127 115.408 44.102C114.88 43.6913 114.44 43.2073 114.088 42.65C113.751 42.078 113.582 41.374 113.582 40.538C113.582 39.8193 113.714 39.196 113.978 38.668C114.242 38.14 114.601 37.7073 115.056 37.37C115.525 37.018 116.075 36.7613 116.706 36.6C117.337 36.424 118.019 36.336 118.752 36.336C119.647 36.336 120.475 36.402 121.238 36.534C122.015 36.6513 122.712 36.842 123.328 37.106C123.313 37.3993 123.284 37.7367 123.24 38.118C123.211 38.4993 123.167 38.8807 123.108 39.262C123.049 39.6287 122.983 39.9807 122.91 40.318C122.851 40.6407 122.793 40.912 122.734 41.132H121.832L120.82 38.118C120.644 38.03 120.38 37.9493 120.028 37.876C119.691 37.8027 119.339 37.766 118.972 37.766C118.356 37.766 117.835 37.9273 117.41 38.25C116.985 38.5727 116.772 39.042 116.772 39.658C116.772 40.2153 116.948 40.692 117.3 41.088C117.652 41.4693 118.092 41.8213 118.62 42.144C119.148 42.4667 119.72 42.7893 120.336 43.112C120.967 43.42 121.546 43.7793 122.074 44.19C122.602 44.6007 123.042 45.0847 123.394 45.642C123.746 46.1847 123.922 46.8593 123.922 47.666C123.922 49.1327 123.423 50.2693 122.426 51.076C121.443 51.868 119.991 52.264 118.07 52.264C117.601 52.264 117.124 52.2347 116.64 52.176C116.171 52.1173 115.723 52.0367 115.298 51.934C114.873 51.8313 114.491 51.7213 114.154 51.604C113.831 51.4867 113.589 51.362 113.428 51.23C113.443 50.8927 113.479 50.5333 113.538 50.152C113.597 49.756 113.655 49.3673 113.714 48.986C113.787 48.59 113.861 48.216 113.934 47.864C114.007 47.512 114.081 47.204 114.154 46.94H115.056L115.958 50.174Z" fill="#313131"/>
</svg>
