<svg width="62" height="62" fill="none" xmlns="http://www.w3.org/2000/svg"><path fill-rule="evenodd" clip-rule="evenodd" d="M15.967.118C8.457.955 2.175 6.528.467 13.871-.701 18.887.35 24.271 3.3 28.377l.663.923v6.534c0 6.235.01 6.563.242 7.18a3.04 3.04 0 002.275 1.901c.677.128 1.566-.03 2.166-.383.224-.132 2.13-2.116 4.235-4.407l3.827-4.167h3.26v2.514l-.385.159c-.598.247-1.718 1.426-2.074 2.182a6.585 6.585 0 00-.445 1.453c-.157.97-.168 14.271-.012 15.348.309 2.136 1.939 3.875 3.993 4.261.884.167 19.028.167 19.912 0 2.054-.386 3.684-2.125 3.993-4.26.156-1.078.145-14.379-.012-15.349a6.585 6.585 0 00-.445-1.453c-.356-.756-1.476-1.935-2.074-2.182l-.385-.16v-2.513l1.789-.002c5.032-.006 9.4-1.778 12.872-5.222 7.154-7.096 7.058-18.759-.21-25.683C53.476 2.18 49.997.56 45.89.113c-1.416-.154-28.538-.15-29.923.005zM47.37 2.332c6.34 1.521 10.985 6.208 12.328 12.434.172.795.22 1.541.217 3.327-.004 2-.042 2.451-.29 3.451-1.127 4.547-3.792 8.09-7.819 10.397-2.414 1.383-5.277 2.066-8.694 2.076l-1.166.003-.08-.698c-.043-.384-.262-1.23-.486-1.88-1.392-4.048-4.911-6.858-9.223-7.366-4.99-.588-9.869 2.527-11.533 7.365-.224.65-.444 1.505-.489 1.9l-.08.715-2.09-.078-2.09-.08-4.024 4.391c-2.213 2.415-4.178 4.466-4.367 4.558-.416.203-.878.107-1.213-.252-.241-.259-.246-.4-.246-7.083v-6.819l-.788-1.06c-1.334-1.799-2.162-3.518-2.759-5.725-.358-1.326-.377-1.507-.385-3.755-.01-2.589.125-3.523.78-5.41C4.686 7.515 9.395 3.381 14.698 2.361c.531-.102 1.075-.21 1.209-.238.133-.03 7.062-.043 15.398-.031 14.137.02 15.217.037 16.065.24zM12.244 13.071c-.924.13-2.082.718-2.771 1.408a4.92 4.92 0 000 7.013c2.426 2.424 6.532 1.724 7.976-1.36 1.7-3.628-1.242-7.619-5.205-7.061zm17.91.009c-2.22.371-3.967 2.32-4.097 4.572-.153 2.637 1.565 4.777 4.207 5.242 1.875.33 4.046-.697 5.036-2.38 1.053-1.79.82-4.246-.552-5.81-1.103-1.259-2.927-1.903-4.595-1.624zm18.1-.01c-1.508.213-3.03 1.343-3.696 2.745-1.433 3.018.401 6.539 3.69 7.083 1.55.257 3.141-.265 4.283-1.406a4.921 4.921 0 00.015-6.998 5.028 5.028 0 00-4.291-1.423zM14.21 15.294c.729.344 1.174.796 1.506 1.528.48 1.06.273 2.225-.562 3.152-.677.753-1.33 1.012-2.38.945-1.544-.098-2.628-1.181-2.726-2.722-.067-1.051.192-1.702.948-2.381.96-.861 2.103-1.047 3.214-.522zm18.3.123c2.016 1.18 1.922 4.132-.166 5.19-1.746.884-3.853-.111-4.247-2.008a3.034 3.034 0 012.029-3.48c.61-.198 1.789-.05 2.384.298zm17.436-.268c.669.2 1.605 1.073 1.857 1.731.5 1.31-.028 2.901-1.204 3.628-.745.46-1.868.567-2.684.256-.659-.252-1.533-1.187-1.733-1.855a3.003 3.003 0 013.764-3.76zM33.73 26.435c2.79.91 4.906 3.02 5.841 5.828.295.886.327 1.174.376 3.361L40 38.017h-1.966l-.002-1.787c-.003-3.05-.533-4.595-2.108-6.147-1.445-1.424-2.94-2.045-4.922-2.045-1.982 0-3.477.621-4.922 2.045-1.575 1.552-2.105 3.097-2.108 6.147l-.002 1.787h-1.966l.053-2.393c.049-2.187.08-2.475.376-3.36 1.035-3.11 3.479-5.325 6.69-6.067 1.166-.269 3.406-.153 4.607.238zm-1.332 3.775c1.598.464 3.071 1.95 3.388 3.416l.085.394h-9.738l.085-.394c.308-1.425 1.66-2.832 3.238-3.37.797-.27 2.097-.291 2.942-.046zm3.575 6.777v1.03h-9.942v-2.06h9.942v1.03zm5.353 3.364c.377.185.83.525 1.005.755.682.894.674.79.674 8.872 0 5.36-.04 7.583-.142 7.925-.187.622-.994 1.529-1.61 1.809-.463.21-1.043.222-10.251.222s-9.788-.013-10.25-.222c-.617-.28-1.424-1.187-1.611-1.809-.103-.342-.143-2.565-.143-7.925 0-8.003-.002-7.964.628-8.816.348-.47.955-.85 1.67-1.044.421-.115 2.777-.145 9.948-.127l9.397.024.685.336zm-11.648 1.855c-1.578.424-2.875 1.668-3.409 3.271-.563 1.69-.111 3.652 1.142 4.959l.56.584V58h6.062v-6.98l.56-.584c1.253-1.307 1.705-3.268 1.142-4.959-.85-2.548-3.473-3.965-6.057-3.271zm2.597 2.101c1.452.631 2.119 2.561 1.387 4.013-.22.437-.973 1.191-1.437 1.44-.246.131-.253.216-.253 3.158v3.024h-1.94v-3.024c0-2.942-.007-3.027-.253-3.159-.464-.248-1.217-1.002-1.437-1.44a2.973 2.973 0 01.445-3.293c.928-1.026 2.185-1.285 3.488-.719z" fill="#D83838"/></svg>