<svg width="64" height="64" fill="none" xmlns="http://www.w3.org/2000/svg"><path fill-rule="evenodd" clip-rule="evenodd" d="M10.37.228c-.476.163-1.287.916-5.272 4.9C.818 9.406.369 9.892.184 10.467c-.186.574-.202 2.045-.172 15.824l.033 15.192.27.5c.32.59.934 1.194 1.545 1.519.408.217.878.235 6.92.268l6.482.036.37-.37c.204-.203.37-.49.37-.636 0-.211-.272-.898-.41-1.031-.015-.015-2.919-.058-6.452-.094l-6.426-.067-.302-.35-.302-.352V11.774h3.357c3.996 0 4.385-.073 5.297-.984.911-.911.983-1.3.983-5.296V2.136l8.256.034c7.732.032 8.27.048 8.48.257.208.209.227.78.286 8.736l.062 8.513.351.302c.46.394 1.01.392 1.407-.005l.307-.307-.001-8.606-.001-8.606-.296-.634A3.152 3.152 0 0028.785.206c-.845-.288-17.57-.268-18.414.022zM43.788.132c-.743.226-1.295.724-5.652 5.097-3.229 3.24-4.648 4.75-4.787 5.09-.169.41-.199 1.157-.199 4.916v4.43l.307.308c.398.397.948.4 1.407.005l.351-.302.036-3.944.037-3.944 3.593-.039 3.593-.038.65-.342c.357-.188.791-.53.966-.758.676-.886.7-1.052.7-4.9V2.14h16.414l.366.366.366.366v38.033l-.302.351-.302.351-6.425.067c-3.534.036-6.438.079-6.453.094-.137.133-.41.82-.41 1.031 0 .146.166.433.37.636l.37.37 6.482-.036c6.042-.033 6.512-.05 6.92-.268.612-.325 1.225-.929 1.544-1.518l.271-.5V2.328l-.276-.516c-.386-.721-1.3-1.49-1.97-1.659-.64-.16-17.443-.182-17.967-.022zM9.595 6.392c-.05 3.47.24 3.18-3.233 3.23-1.443.022-2.625-.006-2.625-.06 0-.133 5.663-5.794 5.795-5.794.056 0 .085 1.18.063 2.623zm32.93 2.71c-.256.482-.637.545-3.28.545h-2.527l2.94-2.94 2.94-2.942.035 2.535c.023 1.716-.011 2.62-.108 2.802zM6.178 14.99c-.813.197-1.095 1.229-.49 1.797l.322.303 9.158.038c6.424.026 9.3-.003 9.632-.1.989-.289 1.076-1.561.134-1.955-.339-.141-2.035-.17-9.46-.158-4.975.008-9.158.042-9.296.075zm32.906.087c-.914.402-.81 1.668.161 1.95.333.098 3.208.127 9.632.1l9.158-.037.323-.303a1.033 1.033 0 000-1.52l-.323-.304-9.283-.028c-7.58-.023-9.353.003-9.668.142zM5.928 20.424c-.648.354-.77 1.161-.256 1.675l.307.308h19.013l.335-.399c.406-.483.358-1.016-.132-1.447l-.32-.281-9.349.004c-6.524.002-9.424.045-9.598.14zm32.922.137c-.49.431-.538.964-.132 1.447l.336.399h19.012l.308-.308c.302-.302.396-.815.23-1.25-.219-.568-.232-.57-10.11-.57H39.17l-.32.282zm-8.642 1.979c-5.81.789-10.478 4.616-12.35 10.124-.976 2.874-.987 6.458-.028 9.325a15.039 15.039 0 003.554 5.82 15.034 15.034 0 005.595 3.617l.777.282.037 4.582.037 4.583.332.707c.412.88 1.208 1.67 2.108 2.095.573.27.867.325 1.753.325.89 0 1.18-.054 1.771-.332.88-.412 1.671-1.207 2.096-2.107l.325-.688.037-4.583.037-4.582.777-.28c4.986-1.793 8.675-6.183 9.657-11.491.244-1.322.249-3.796.01-5.161-1.059-6.03-5.857-10.91-11.855-12.055-1.31-.25-3.527-.337-4.67-.181zm2.656 2.071l.279.075.034 8.649.035 8.649.347.741c.47 1.002 1.068 1.703 1.967 2.303 1.03.688 2.024.896 4.272.896h1.78l-.303.324c-.601.64-1.996 1.703-2.944 2.244a12.701 12.701 0 01-12.616 0c-.949-.54-2.344-1.604-2.944-2.244l-.304-.324h1.757c.966 0 2.06-.057 2.431-.127 1.59-.299 3.06-1.452 3.775-2.96l.404-.853.034-8.655c.033-8.07.05-8.658.25-8.71.33-.087 1.434-.092 1.746-.008zm-4.095 8.602v8.18l-.35.67c-.38.731-1.188 1.378-2.006 1.605-.253.07-1.593.128-2.977.129H20.92l-.508-1.094c-.28-.602-.6-1.46-.713-1.908a46.853 46.853 0 00-.27-1.032c-.06-.203.123-.219 2.604-.22 2.896-.003 3.167-.055 3.461-.668.204-.424.11-.863-.255-1.204-.257-.24-.432-.253-3.145-.253h-2.872l.064-1.095c.035-.602.19-1.559.344-2.127l.28-1.032h2.306c2.607 0 3.026-.093 3.292-.735.195-.47.006-1.06-.417-1.302-.16-.092-1.023-.176-2.182-.214l-1.917-.063.619-.875c1.105-1.563 2.913-3.12 4.654-4.007.637-.324 2.193-.926 2.41-.932.051-.002.094 3.678.094 8.177zm7.6-7.86c2.466.927 4.718 2.661 6.163 4.747l.52.75-1.916.063c-1.158.038-2.022.122-2.181.214-.424.243-.613.832-.418 1.302.266.642.685.735 3.293.735h2.305l.28 1.032c.154.568.31 1.525.344 2.127l.064 1.095h-2.896c-2.716 0-2.91.015-3.143.247-.343.343-.431.797-.233 1.21.294.613.565.665 3.461.667 2.482.002 2.664.017 2.604.221-.036.12-.157.585-.27 1.032-.112.447-.433 1.306-.713 1.908l-.508 1.094H40.61c-1.384 0-2.723-.058-2.977-.129-.818-.227-1.627-.874-2.006-1.605l-.35-.67v-8.18c0-5.242.045-8.18.123-8.18.067 0 .504.144.97.32zm-30.697.613c-.507.506-.406 1.322.202 1.636.527.273 11.47.273 11.997 0 .608-.314.709-1.13.202-1.636l-.307-.307H5.98l-.307.307zm40.3 0c-.507.506-.406 1.322.202 1.636.527.273 11.47.273 11.997 0 .608-.314.71-1.13.203-1.636l-.308-.307H46.28l-.307.307zM6.178 31.002c-.813.197-1.095 1.229-.49 1.797l.322.303 4.34.034c3.949.031 4.378.015 4.775-.187.825-.42.825-1.404 0-1.817-.391-.196-.867-.217-4.567-.204-2.271.008-4.242.041-4.38.074zm42.742.127c-.515.261-.731.749-.556 1.254.069.198.304.438.556.566.398.202.826.218 4.776.187l4.34-.034.322-.303c.233-.219.323-.431.323-.76 0-.33-.09-.542-.323-.76l-.323-.304-4.339-.034c-3.95-.031-4.378-.014-4.776.188zM5.928 36.434c-.648.36-.77 1.163-.256 1.677l.307.307h4.119c3.977 0 4.13-.008 4.448-.259.41-.322.455-1.06.091-1.51l-.239-.295-4.11-.03c-2.843-.02-4.187.013-4.36.11zm43.781-.016c-.624.251-.752 1.315-.21 1.741.318.25.471.26 4.448.26h4.12l.307-.308c.188-.188.307-.45.307-.677 0-1.114-.123-1.144-4.781-1.134-2.155.004-4.04.057-4.19.118zM34.15 56.217c0 4.406-.014 4.5-.792 5.183-1.058.93-2.741.519-3.294-.803-.13-.31-.169-1.324-.169-4.38V52.24h4.255v3.976z" fill="#D83838"/></svg>