<svg width="63" height="63" fill="none" xmlns="http://www.w3.org/2000/svg"><path fill-rule="evenodd" clip-rule="evenodd" d="M8.568.106c-1.02.31-1.858 1.134-2.15 2.115-.133.448-.192 1.165-.192 2.346v1.7H4.522c-1.183 0-1.9.059-2.35.191-.75.223-1.514.859-1.903 1.585l-.269.5V60.72l.267.492c.314.58.918 1.174 1.52 1.494.414.22 1.092.23 16.128.261L33.611 63l.362-.361c.47-.47.47-.908.002-1.375l-.36-.36H2.755l-.36-.36-.36-.36V9.112l.297-.345.297-.346 13.383-.032 13.382-.032.036 5.2c.035 5.082.042 5.213.306 5.705.148.277.477.686.73.908.929.813.825.8 6.417.84l5.075.037.042 1.4c.038 1.282.066 1.426.34 1.716.398.423 1.018.43 1.433.015.298-.298.302-.33.302-2.49V19.5l-6.595-6.586-6.594-6.586-11.291-.032-11.291-.033.04-1.793c.04-1.792.04-1.794.386-2.09l.345-.297h27.298l6.009 6.002 6.008 6.002v4.158c0 2.427.05 4.25.119 4.38.203.379.804.557 1.253.372.691-.287.724-.52.724-5.15 0-2.607-.048-4.311-.129-4.527C50.212 12.929 37.786.441 37.27.168c-.284-.151-2.396-.175-14.363-.166-7.717.005-14.17.052-14.34.104zm31.04 18.812c-.493.02-2.385.02-4.204 0l-3.31-.038-.297-.345-.297-.345V9.898l4.501 4.491 4.502 4.491-.895.038zM13.5 11.743a11.623 11.623 0 00-9.326 10.618c-.283 3.972 1.733 8.024 5.134 10.325 2.162 1.461 5.011 2.164 7.606 1.875 4.898-.545 8.86-4.017 10.046-8.805.38-1.532.38-3.851 0-5.384-1.09-4.4-4.727-7.835-9.145-8.637-1.153-.21-3.257-.205-4.315.008zm4.623 2.206c.407.107 1.267.453 1.911.768 1.004.49 1.34.742 2.35 1.753 1.002 1.004 1.264 1.354 1.753 2.349.77 1.562.998 2.549.997 4.307 0 1.09-.063 1.64-.275 2.392-.317 1.127-1.086 2.67-1.66 3.333l-.397.458-.512-1.03c-.5-1.007-1.414-2.119-2.175-2.647l-.352-.244.315-.464c.887-1.303 1.129-3.224.585-4.643-.397-1.037-1.138-1.985-2-2.56-1.053-.702-1.851-.91-3.252-.85-.969.043-1.252.108-1.937.444-2.88 1.416-3.88 5.012-2.114 7.61l.315.463-.351.244c-.762.528-1.675 1.64-2.175 2.647l-.513 1.03-.396-.458c-.572-.66-1.342-2.203-1.663-3.333-.217-.763-.278-1.288-.276-2.392.004-1.761.235-2.755 1.001-4.307.483-.977.76-1.353 1.693-2.29 1.485-1.492 2.931-2.294 4.875-2.703 1.002-.21 3.231-.146 4.253.123zm-1.11 5.227c1.637.76 2.32 2.802 1.452 4.343-.722 1.283-2.044 1.895-3.427 1.586-1.401-.313-2.43-1.58-2.436-3-.004-.924.253-1.577.873-2.224.642-.67 1.277-.934 2.244-.934.522 0 .973.08 1.295.229zm30.473 6.163c-4.103.743-7.527 3.578-8.956 7.416-.536 1.438-.641 2.18-.705 4.953l-.063 2.707-.598.528c-.382.337-.746.826-1.005 1.351l-.406.823-.035 8.058c-.034 7.813-.027 8.083.217 8.884.318 1.045 1.173 2.029 2.2 2.532l.7.344h21.082l.582-.268c.816-.376 1.759-1.3 2.16-2.117l.341-.692v-16.74l-.406-.824c-.26-.525-.623-1.014-1.005-1.35l-.598-.529-.06-2.768c-.066-3.133-.212-3.911-1.081-5.765-1.494-3.186-4.101-5.36-7.576-6.318-.983-.27-3.806-.404-4.788-.225zM14.61 27.13c.906.23 1.791.185 2.807-.142l.648-.209.678.466c1.103.758 2.022 2.222 2.07 3.297l.023.515-.925.466c-2.587 1.305-5.785 1.306-8.382.003-.537-.27-.94-.553-.965-.678-.076-.402.344-1.536.85-2.293.58-.866 1.754-1.791 2.148-1.691l1.048.266zm37.417.548c1.661.523 2.731 1.178 4.012 2.457.908.906 1.294 1.4 1.688 2.162.868 1.68 1.04 2.483 1.11 5.196l.062 2.369h-2.095l-.06-2.246c-.05-1.833-.109-2.393-.32-3.046-1.202-3.703-5.096-5.877-8.823-4.925-2.485.634-4.415 2.435-5.21 4.864-.284.867-.33 1.244-.382 3.168l-.06 2.185H39.85l.067-2.308c.071-2.482.217-3.297.83-4.662 1.238-2.751 3.85-4.813 6.912-5.456.95-.2 3.393-.064 4.367.242zm-1.378 4c1.407.366 2.366 1.063 3.178 2.314.643.989.851 2 .851 4.14v1.73H44.075l.003-1.508c.004-2.863.36-4.039 1.597-5.276 1.368-1.369 3.158-1.872 4.974-1.4zM4.75 37.927c-.677.342-.787 1.163-.225 1.685.266.247.382.25 12.742.25 12.433 0 12.475-.001 12.799-.256.325-.255.431-.8.248-1.277-.219-.569-.007-.56-13.017-.558-9.545.002-12.31.036-12.547.156zm54.775 4.205c.615.218.931.51 1.209 1.114.212.46.227.985.229 8.218.002 6.215-.03 7.803-.164 8.123-.221.529-.963 1.164-1.464 1.255-.222.04-4.846.057-10.276.037l-9.873-.036-.466-.355c-.96-.731-.927-.408-.927-9.06 0-7.202.014-7.721.227-8.182.277-.604.594-.896 1.208-1.114.694-.247 19.603-.247 20.297 0zM4.45 43.44c-.418.497-.406.907.043 1.355l.362.361 12.533-.032 12.532-.032.236-.291c.336-.414.305-1.066-.067-1.438l-.303-.302H4.77l-.32.379zm43.678 1.899c-2.595.83-3.771 4.046-2.281 6.237.261.385.298.604.353 2.08.073 1.972.24 2.47 1.083 3.227.644.578 1.272.822 2.109.821.942-.001 1.482-.227 2.16-.905.823-.82 1.031-1.486 1.031-3.296 0-1.303.009-1.342.462-2.162.444-.8.463-.883.462-2.004 0-1.04-.038-1.241-.343-1.82-.748-1.419-2.033-2.249-3.595-2.321-.539-.025-1.087.029-1.441.143zm2.24 2.19c1.258.663 1.46 2.291.422 3.408-.269.289-.288.42-.325 2.174-.038 1.78-.053 1.882-.338 2.185-.368.39-.955.42-1.4.07-.308-.241-.314-.28-.355-2.122l-.042-1.877-.458-.587c-.752-.966-.774-1.947-.062-2.756.715-.813 1.624-.99 2.559-.496zm-45.83 1.008c-.328.23-.458.773-.29 1.215.275.72-.156.699 13.25.663l12.257-.032.318-.298c.423-.397.438-1.085.033-1.465l-.285-.267H17.31c-10.924 0-12.542.023-12.773.184zm.213 5.141c-.677.343-.787 1.163-.225 1.685.262.244.41.25 6.476.25h6.209l.302-.302c.425-.423.403-.971-.057-1.43l-.36-.36-6.02.002c-4.568.001-6.094.039-6.325.155z" fill="#D83838"/></svg>