<svg width="14" height="14" fill="none" xmlns="http://www.w3.org/2000/svg"><path d="M11.309 5.385h-1.077a1.617 1.617 0 00-1.615-1.616V2.692a2.694 2.694 0 012.692 2.693z" fill="#000"/><path d="M13.462 5.385h-1.077a3.774 3.774 0 00-3.768-3.77V.538a4.849 4.849 0 014.845 4.847zM12.385 14h-.091C1.716 13.392.214 4.464.004 1.74A1.616 1.616 0 011.62 0h2.836a1.076 1.076 0 011.001.678l.819 2.014a1.077 1.077 0 01-.237 1.163L4.892 5.013a5.04 5.04 0 004.08 4.092l1.168-1.157a1.076 1.076 0 011.169-.221l2.029.813A1.076 1.076 0 0114 9.542v2.843A1.616 1.616 0 0112.385 14zM1.62 1.077a.538.538 0 00-.539.581c.248 3.188 1.836 10.727 11.272 11.265a.538.538 0 00.57-.505V9.542l-2.029-.814-1.545 1.535-.258-.032c-4.683-.587-5.318-5.272-5.318-5.32l-.033-.259 1.53-1.545-.808-2.03H1.62z" fill="#000"/></svg>